<svg version="1.1" id="Layer_1" xmlns="http://www.w3.org/2000/svg" xmlns:xlink="http://www.w3.org/1999/xlink" x="0px" y="0px" width="2000" viewBox="0 0 2000 2000" enable-background="new 0 0 2000 2000" xml:space="preserve" height="2000">
<path fill="#000000" opacity="1.000000" stroke="none" d="
M873.000000,2001.000000 
	C582.000000,2001.000000 291.500000,2001.000000 1.000000,2001.000000 
	C1.000000,1334.333374 1.000000,667.666687 1.000000,1.000000 
	C667.666687,1.000000 1334.333374,1.000000 2001.000000,1.000000 
	C2001.000000,667.666687 2001.000000,1334.333374 2001.000000,2001.000000 
	C1625.166626,2001.000000 1249.333374,2001.000000 873.000000,2001.000000 
M744.261475,869.976074 
	C743.484619,870.165710 742.680054,870.280701 741.935242,870.556824 
	C736.202698,872.681580 730.521790,876.485657 724.748596,876.625671 
	C714.165222,876.882202 703.552429,877.991577 692.760498,875.386536 
	C684.546936,873.403931 676.905090,871.111267 669.313171,867.314941 
	C658.258118,861.786804 648.407715,855.099670 641.517334,844.822327 
	C637.807373,839.288818 635.039001,833.109070 632.028381,827.129028 
	C630.815002,824.718994 630.063416,822.072632 629.148926,819.516968 
	C627.749939,815.607544 625.379822,811.727783 625.206238,807.757385 
	C624.682373,795.779663 624.830261,783.759460 625.135132,771.766541 
	C625.226929,768.158630 626.289246,764.429565 627.614563,761.032043 
	C629.776306,755.489807 632.462769,750.147217 635.037170,744.772766 
	C636.735168,741.228088 638.093750,737.332153 640.552795,734.384888 
	C644.268860,729.931091 648.731445,726.079651 653.027222,722.136108 
	C656.967651,718.518860 660.099121,713.967102 665.823669,712.439087 
	C669.178650,711.543579 672.848022,710.087341 675.258606,707.737305 
	C681.104187,702.038452 689.328613,701.170898 695.823486,700.679016 
	C706.955017,699.835938 718.671448,697.234558 730.004639,702.665100 
	C734.227905,704.688721 739.259399,704.930298 743.767700,707.689209 
	C752.493958,713.029480 762.047668,717.002808 771.164978,721.723083 
	C780.291504,726.448059 783.220703,723.406555 789.207275,718.774963 
	C793.148804,715.725586 795.739258,711.994324 798.048767,707.964783 
	C801.931152,701.190979 806.032898,694.423218 808.850708,687.188721 
	C812.528564,677.745850 805.203125,669.903687 798.162109,666.050903 
	C793.257202,663.366882 788.133423,661.085693 783.143127,658.554138 
	C779.602478,656.757935 776.267700,654.452942 772.579590,653.074829 
	C767.112915,651.032410 761.432068,649.548340 755.808228,647.946777 
	C752.601379,647.033386 749.047485,646.917358 746.138489,645.464050 
	C739.259827,642.027771 731.768005,640.801147 724.458496,640.220398 
	C713.199219,639.325684 701.813904,640.134949 690.486816,639.940613 
	C680.189392,639.764099 670.525635,641.245483 660.885925,645.591064 
	C655.945190,647.818298 649.899475,647.894104 644.794739,650.890198 
	C637.638062,655.090393 629.646912,658.034241 622.980591,662.854187 
	C617.187500,667.042664 610.737549,670.461304 606.220764,676.707397 
	C601.716614,682.935791 595.007996,687.529968 590.153076,693.555420 
	C584.704102,700.318237 580.087341,707.779663 575.432678,715.142029 
	C573.231934,718.622925 571.519897,722.480896 570.063599,726.347717 
	C568.049988,731.694092 566.983337,737.438660 564.608643,742.597290 
	C561.438904,749.482910 560.103943,756.570129 559.985962,764.015625 
	C559.964844,765.347351 560.481628,767.035767 559.858032,767.953247 
	C555.812439,773.904846 557.022339,780.586487 557.054626,787.032104 
	C557.090881,794.265991 557.270935,801.543518 558.116089,808.716248 
	C558.914551,815.492065 560.488831,822.195862 562.039612,828.857361 
	C563.218201,833.920227 564.575256,838.990601 566.442261,843.830200 
	C568.218689,848.434875 571.414795,852.546814 572.827454,857.225403 
	C575.765625,866.956177 581.605591,874.839844 587.903809,882.365845 
	C593.386169,888.916687 599.299438,895.223267 605.723633,900.834839 
	C611.462463,905.847717 617.845093,910.332397 624.513062,914.020752 
	C633.107605,918.774780 642.167664,922.743042 651.223389,926.587524 
	C657.030884,929.053040 663.481873,929.067200 669.562866,931.601440 
	C676.182556,934.360107 684.077576,934.641418 691.452759,934.878723 
	C705.266052,935.323425 719.105530,934.957581 733.314575,935.294373 
	C733.448181,935.408813 733.581726,935.523193 733.190186,936.207886 
	C728.452026,937.969116 723.519043,939.337402 719.014465,941.569946 
	C708.204529,946.927551 698.257507,953.308289 689.675354,962.228760 
	C682.286865,969.908386 677.908997,978.947876 674.257080,988.357666 
	C672.165100,993.748291 672.679138,1000.144287 671.964355,1006.080933 
	C671.832581,1007.175171 671.307861,1008.222595 671.180420,1009.316772 
	C670.570312,1014.552429 669.727356,1019.790405 669.618713,1025.041016 
	C669.573303,1027.237671 671.873352,1029.476440 671.846985,1031.681030 
	C671.751160,1039.714233 672.498657,1047.386719 676.925720,1054.419189 
	C679.460449,1058.445679 680.897522,1063.289185 683.895020,1066.872925 
	C690.616333,1074.908813 698.361145,1081.938843 708.260193,1086.060791 
	C710.460083,1086.976807 713.077454,1087.236694 714.924988,1088.588135 
	C720.791016,1092.879272 727.639038,1094.299805 734.423889,1096.002075 
	C735.054810,1096.160400 735.982483,1095.871582 736.351562,1096.227173 
	C741.965576,1101.636353 750.419189,1099.086548 756.617798,1103.729248 
	C759.591919,1105.956787 764.694031,1105.343262 768.832397,1106.016479 
	C769.481445,1106.121948 770.201294,1106.080322 770.768372,1106.354858 
	C774.592102,1108.205078 778.351685,1110.189941 782.197266,1111.992065 
	C784.497559,1113.070068 787.022827,1113.694336 789.258179,1114.878906 
	C793.498535,1117.125854 797.769287,1119.384888 801.727417,1122.079590 
	C808.423706,1126.638428 815.197693,1131.401489 817.250793,1139.891479 
	C817.888672,1142.529175 817.710388,1145.784424 816.736572,1148.305298 
	C814.602844,1153.828491 810.152222,1157.375854 805.128418,1160.518433 
	C800.834106,1163.204834 796.731018,1165.911255 791.511719,1165.965698 
	C784.180420,1166.042114 776.847412,1166.023193 769.515808,1165.964355 
	C767.051453,1165.944580 764.441833,1166.142212 762.160339,1165.416992 
	C758.703857,1164.318237 755.518494,1162.396484 752.140991,1161.011963 
	C747.561707,1159.134766 742.000061,1158.482178 738.486816,1155.430908 
	C732.065430,1149.853882 723.222351,1149.121338 717.067993,1143.180054 
	C714.623047,1140.819824 710.477295,1140.292358 707.235352,1138.671387 
	C701.358032,1135.732910 691.665283,1136.902588 687.074890,1141.492554 
	C685.895691,1142.671631 685.430298,1144.536621 684.339600,1145.837158 
	C680.959229,1149.867554 677.331909,1153.692993 673.994873,1157.757568 
	C670.170227,1162.416138 666.872131,1167.548828 662.733521,1171.892700 
	C660.029968,1174.730225 660.509766,1177.268066 662.029114,1179.776733 
	C667.255371,1188.406006 675.491028,1194.069824 683.359497,1199.869751 
	C688.846436,1203.914307 695.213623,1206.791626 701.283691,1210.008911 
	C705.369019,1212.174072 709.475891,1214.463989 713.834595,1215.909180 
	C720.285400,1218.048218 726.983398,1219.432983 733.548096,1221.240723 
	C739.050781,1222.755981 744.424561,1225.140503 750.016479,1225.825562 
	C756.584473,1226.630005 763.453491,1226.818115 769.957214,1225.789429 
	C776.496765,1224.755249 782.181152,1228.545898 789.268250,1226.516479 
	C798.129028,1223.979004 808.154175,1227.283936 817.472107,1224.076904 
	C821.844727,1222.571899 826.677612,1222.270508 830.890015,1220.463379 
	C838.059570,1217.387695 845.086365,1213.866699 851.825928,1209.937256 
	C857.148621,1206.833984 862.758972,1203.559448 866.782349,1199.057007 
	C872.048157,1193.163818 875.977112,1186.050171 880.262146,1179.322266 
	C881.517517,1177.351196 882.087769,1174.926270 882.867859,1172.673340 
	C884.618286,1167.617676 886.338196,1162.550781 887.992004,1157.462769 
	C888.437866,1156.091064 888.602661,1154.628296 889.031860,1152.552612 
	C892.049011,1158.151123 894.650391,1162.917358 897.195496,1167.713379 
	C902.325562,1177.380981 908.588623,1186.309448 916.505432,1193.800659 
	C922.879150,1199.831665 929.867371,1205.292969 937.013245,1210.405762 
	C944.135498,1215.501587 952.626892,1217.990112 960.593811,1221.496216 
	C967.447266,1224.512329 974.172791,1226.254395 981.546936,1226.041870 
	C983.002747,1226.000000 984.717346,1225.861938 985.890015,1226.520630 
	C994.303711,1231.246582 1003.056396,1228.967529 1011.725708,1227.958496 
	C1015.194458,1227.554932 1018.612915,1226.701660 1022.045471,1226.009155 
	C1026.898926,1225.029785 1031.826782,1224.295898 1036.568481,1222.923218 
	C1040.940552,1221.657715 1044.986084,1218.968628 1049.398926,1218.215820 
	C1054.594727,1217.329224 1059.330444,1216.446533 1063.860352,1213.233521 
	C1068.588745,1209.879639 1074.167236,1207.667847 1079.502808,1205.239502 
	C1086.493896,1202.057739 1088.965332,1196.358276 1087.819214,1189.358887 
	C1087.312866,1186.267090 1084.777954,1183.464233 1083.001221,1180.632080 
	C1077.520386,1171.895508 1071.730347,1163.276733 1063.733154,1156.710815 
	C1061.208252,1154.637817 1056.489868,1153.517822 1053.349487,1154.291748 
	C1047.787964,1155.661865 1042.166260,1158.107544 1037.489258,1161.406738 
	C1031.890991,1165.355957 1025.166016,1167.068848 1019.845703,1171.692261 
	C1017.358276,1173.853882 1012.510254,1173.878052 1008.741638,1173.843018 
	C1003.789246,1173.797119 998.753845,1173.156616 993.846191,1172.576172 
	C986.444031,1171.700562 980.514893,1168.262085 974.926147,1164.881592 
	C967.758545,1160.545898 961.763550,1154.090576 955.838013,1147.990112 
	C953.997131,1146.094971 952.691345,1141.905151 953.513306,1139.618652 
	C954.713135,1136.280884 958.301758,1134.891724 962.509888,1134.911377 
	C1000.341431,1135.088623 1038.174438,1135.083008 1076.006348,1134.944214 
	C1081.913330,1134.922607 1088.215454,1136.685425 1093.582520,1132.264771 
	C1094.301880,1131.672241 1095.869507,1131.876709 1096.994019,1132.046265 
	C1105.518677,1133.332520 1115.001221,1122.796387 1114.087646,1114.654175 
	C1113.662842,1110.868652 1114.224365,1106.982056 1113.971436,1103.165649 
	C1113.444458,1095.214233 1112.713867,1087.275269 1111.952026,1079.342163 
	C1111.851440,1078.293457 1111.068848,1077.313965 1110.619873,1076.294556 
	C1109.081177,1072.801514 1106.442749,1069.362061 1106.259521,1065.797363 
	C1105.932495,1059.442627 1102.505249,1054.570923 1099.767212,1049.559937 
	C1095.578247,1041.893799 1090.596436,1034.545166 1085.103760,1027.746460 
	C1081.201782,1022.916809 1076.168213,1018.859131 1071.143311,1015.124634 
	C1067.215576,1012.205566 1062.560059,1010.245056 1058.164062,1007.982544 
	C1053.926758,1005.801575 1049.702148,1003.544312 1045.290161,1001.773560 
	C1042.528564,1000.665222 1038.832153,1001.213806 1036.602783,999.585144 
	C1031.200317,995.638123 1024.771118,995.512024 1019.020508,995.293762 
	C1004.768188,994.752869 990.352600,993.645569 976.208008,996.995178 
	C970.999695,998.228577 965.808472,999.538452 960.630737,1000.894714 
	C958.326660,1001.498230 955.996277,1002.119568 953.817932,1003.058044 
	C950.334290,1004.558716 946.908386,1006.220581 943.566284,1008.015808 
	C939.497314,1010.201477 935.328430,1012.299255 931.588684,1014.974487 
	C926.870056,1018.350037 922.449219,1022.165161 918.070251,1025.985840 
	C913.931030,1029.597412 909.509521,1033.063599 906.136902,1037.325562 
	C902.711975,1041.653687 899.319092,1046.097778 897.467468,1051.656006 
	C895.622009,1057.195679 892.193115,1062.187500 889.888672,1067.602661 
	C888.652588,1070.507446 888.945557,1074.143677 887.449402,1076.839844 
	C884.487610,1082.176880 882.979919,1087.696777 882.984619,1093.719360 
	C882.986206,1095.770996 882.984924,1097.822632 882.984924,1101.141235 
	C880.351257,1098.354858 877.869568,1096.875244 877.187256,1094.803223 
	C874.641418,1087.071411 867.782349,1083.213135 862.478027,1078.176147 
	C858.263000,1074.173584 852.583618,1071.584229 847.292175,1068.880615 
	C842.120300,1066.238159 836.695496,1064.030151 831.236084,1062.028442 
	C825.761780,1060.021118 820.072205,1058.609863 814.541138,1056.746704 
	C807.154907,1054.258545 799.873474,1051.455322 792.466248,1049.034790 
	C786.453674,1047.070068 779.883545,1046.336426 774.333557,1043.529053 
	C762.483521,1037.534790 751.421631,1029.992798 744.916321,1017.961853 
	C743.219360,1014.823486 743.081360,1009.154480 744.822327,1006.153015 
	C750.659546,996.089844 761.144958,991.791809 771.756042,989.236816 
	C782.561768,986.634949 793.295959,990.989075 804.082275,992.073669 
	C804.372375,992.102783 804.620544,992.428711 804.914734,992.554260 
	C808.416443,994.048035 811.943481,995.484192 815.423462,997.026611 
	C819.616882,998.885193 823.856384,1000.668335 827.919739,1002.784180 
	C832.196899,1005.011047 836.179626,1007.814392 840.496338,1009.951111 
	C844.155396,1011.762268 848.024780,1013.270447 851.949890,1014.391907 
	C857.111267,1015.866638 862.486755,1018.058960 867.649170,1017.771301 
	C880.182373,1017.072815 892.996216,1020.930054 905.305603,1015.147217 
	C910.882019,1012.527405 917.765930,1012.365906 922.899719,1009.208252 
	C929.797119,1004.965698 935.826660,999.170044 941.777344,993.562012 
	C951.886841,984.034729 955.766724,970.895203 960.932678,958.584595 
	C963.138733,953.327576 964.610352,947.755737 966.297913,942.290527 
	C967.091248,939.721069 966.824402,936.400269 968.385132,934.566345 
	C974.572021,927.296387 974.891418,917.713928 978.929138,909.626953 
	C981.663940,904.149475 983.528687,898.240173 985.834717,892.545227 
	C987.853333,887.560120 990.111938,882.665710 991.957764,877.619019 
	C993.861816,872.413391 995.182617,866.991760 997.145142,861.810974 
	C999.570435,855.408508 1002.426453,849.170166 1005.027710,842.832703 
	C1005.929260,840.636475 1006.421509,838.255737 1007.462646,836.137146 
	C1009.133728,832.736877 1011.497803,829.636963 1012.859741,826.134277 
	C1014.914246,820.850159 1016.275269,815.300476 1018.097046,809.919922 
	C1018.967285,807.349792 1020.130371,804.865601 1021.321289,802.420593 
	C1022.797180,799.390381 1024.852661,796.580811 1025.918701,793.426147 
	C1027.785522,787.901184 1029.792969,782.480286 1032.243774,777.171936 
	C1034.826172,771.578613 1036.760254,765.687561 1039.022949,759.944458 
	C1041.099365,754.673767 1043.098145,749.366272 1045.375366,744.182251 
	C1049.952759,733.761780 1055.885132,723.792847 1054.121948,711.595154 
	C1053.684570,708.568542 1052.940308,706.556030 1049.817017,705.959106 
	C1044.602539,704.962524 1039.378540,703.114075 1034.172363,703.160828 
	C1022.663452,703.264343 1011.158630,704.259277 999.664490,705.066895 
	C998.072266,705.178772 996.304016,705.984314 995.041565,706.997437 
	C991.127686,710.138489 987.475037,713.050293 986.293518,718.850220 
	C985.133301,724.546204 981.166321,729.609375 979.100342,735.197693 
	C976.679443,741.746155 974.669861,748.354675 971.318237,754.613525 
	C967.831787,761.124146 965.589844,768.322205 963.038086,775.305359 
	C961.089294,780.638733 959.835510,786.240479 957.689087,791.484070 
	C953.672241,801.297180 949.390930,811.012573 944.833069,820.584656 
	C943.932373,822.476440 941.314453,824.666443 939.446655,824.705139 
	C936.994873,824.755920 933.528137,823.487915 932.210266,821.594971 
	C928.368103,816.075989 925.226501,810.043152 922.098511,804.061035 
	C919.313477,798.734741 916.808655,793.252930 914.400940,787.743225 
	C913.576965,785.857666 913.690430,783.570374 912.910156,781.656372 
	C910.743164,776.340576 908.092529,771.213318 906.096008,765.839478 
	C904.623840,761.877258 904.062988,757.585449 902.763977,753.547424 
	C901.214050,748.729187 897.872009,744.507751 897.998596,739.119385 
	C898.013672,738.474731 898.005798,737.703552 897.684631,737.195984 
	C892.985535,729.769653 891.453369,720.680054 885.057373,714.088562 
	C879.645630,708.511353 873.658508,703.621277 865.873230,703.162720 
	C854.247131,702.478027 842.550110,702.903503 830.884888,703.019714 
	C825.163208,703.076721 820.621033,708.731384 819.854126,714.339050 
	C818.212463,726.341614 825.134705,735.523987 829.178955,745.672180 
	C831.403076,751.253357 833.788330,756.771057 835.966064,762.369873 
	C838.025879,767.665344 839.816345,773.066040 841.895081,778.353577 
	C844.153198,784.097595 846.735962,789.715332 848.945435,795.476929 
	C852.165466,803.873779 855.129761,812.368408 858.306885,820.782104 
	C859.368713,823.594116 860.911865,826.226135 861.944824,829.046814 
	C863.463928,833.195312 864.673096,837.456177 866.107361,841.637268 
	C867.332642,845.209290 868.737244,848.719788 869.971069,852.289001 
	C870.798828,854.683411 871.205627,857.253662 872.259033,859.533569 
	C874.676270,864.765137 877.688354,869.738342 879.867432,875.058777 
	C881.960327,880.168823 883.226990,885.611816 885.021057,890.852234 
	C885.795837,893.115417 887.081543,895.198669 887.961060,897.432190 
	C889.179626,900.526672 890.149353,903.719421 891.377441,906.809753 
	C893.475708,912.089661 896.745667,916.915161 896.078125,923.117615 
	C895.599365,927.565979 896.123108,932.112976 895.940491,936.605408 
	C895.798340,940.104492 895.457458,943.163330 893.523010,946.785095 
	C890.627441,952.206665 886.157593,954.976990 881.669128,957.303284 
	C878.400574,958.997314 872.538208,959.337646 869.670593,957.465576 
	C861.262634,951.976807 852.018616,948.585571 843.198975,944.175842 
	C836.775024,940.963867 829.544739,941.400452 823.327454,937.329651 
	C819.560974,934.863586 813.659363,935.667725 808.720947,934.974670 
	C807.774963,934.841919 806.836975,934.617249 805.912903,934.369385 
	C803.012878,933.591431 800.131348,932.138855 797.224609,932.093079 
	C782.366211,931.859070 767.502197,931.984924 752.640198,931.984924 
	C752.555298,931.547852 752.470398,931.110779 752.385498,930.673645 
	C756.624023,929.454163 760.857666,928.217529 765.102356,927.019836 
	C769.368652,925.816101 773.835938,925.091797 777.867981,923.352417 
	C782.428223,921.385132 786.393616,918.002808 790.987915,916.157593 
	C800.201782,912.457031 807.602295,906.778992 813.676392,898.942932 
	C820.302917,890.394165 824.313843,880.450684 824.713989,870.177124 
	C825.653931,846.047668 825.289490,821.851318 824.813232,797.694641 
	C824.700439,791.974854 820.700806,785.767395 812.852722,785.915588 
	C799.524475,786.167419 786.163269,785.494507 772.864014,786.164551 
	C764.569641,786.582458 757.421448,790.584473 758.031250,800.602966 
	C758.458130,807.616028 760.573975,814.766785 759.686340,821.562195 
	C758.401184,831.400452 759.826538,841.538818 755.317017,851.202759 
	C752.722961,856.761963 750.422729,862.233826 746.427734,866.921082 
	C745.719177,867.752319 745.434204,868.944702 745.029907,869.943848 
	C745.029907,869.943848 745.045105,869.864563 744.261475,869.976074 
M1207.553467,1058.973877 
	C1207.974243,1058.328491 1208.290161,1057.573608 1208.831909,1057.054321 
	C1214.912720,1051.225708 1223.675659,1052.761963 1230.668701,1049.164673 
	C1234.269775,1047.312256 1238.735962,1047.215088 1242.671997,1045.906128 
	C1244.346191,1045.349365 1245.595703,1043.615723 1247.156982,1042.599243 
	C1250.910522,1040.155273 1250.898926,1035.869507 1252.642578,1032.497925 
	C1256.660889,1024.727905 1254.482910,1016.952271 1254.770508,1009.248901 
	C1254.876831,1006.401489 1253.051514,1002.667786 1250.870605,1000.730286 
	C1247.125000,997.402954 1242.884766,994.425476 1237.087769,994.880859 
	C1231.125610,995.349243 1225.036499,995.501709 1219.121460,994.797180 
	C1215.381836,994.351685 1210.872192,993.015320 1208.442749,990.441162 
	C1203.202759,984.888550 1199.403442,978.327332 1199.906616,969.909058 
	C1200.403076,961.606812 1200.071411,953.250977 1199.963745,944.920471 
	C1199.943970,943.389038 1199.598389,941.660522 1198.820923,940.375000 
	C1195.405273,934.728088 1190.022949,932.438354 1183.650513,931.976318 
	C1173.311523,931.226685 1162.976318,930.423096 1153.091553,929.676392 
	C1154.968994,928.960693 1157.119507,928.041748 1159.334229,927.319275 
	C1162.917969,926.150024 1166.485229,924.811646 1170.166016,924.085022 
	C1175.704834,922.991638 1181.393433,922.639893 1186.914185,921.477356 
	C1196.232300,919.515137 1205.336792,921.313721 1213.599121,924.730591 
	C1218.619873,926.806885 1223.151245,929.257202 1228.692749,929.017578 
	C1233.131470,928.825623 1237.930908,929.622070 1241.889160,928.149292 
	C1244.736206,927.089844 1245.870361,927.288818 1247.636108,929.133118 
	C1251.003296,932.650024 1255.049316,934.965637 1260.036255,934.992920 
	C1272.367065,935.060486 1284.700684,935.154297 1297.029053,934.969177 
	C1306.237183,934.830994 1312.166138,928.619751 1311.983398,919.404907 
	C1311.606445,900.398438 1311.817139,881.426636 1310.465820,862.378662 
	C1309.092529,843.021057 1311.199097,823.399170 1312.101929,803.907776 
	C1312.391235,797.661987 1311.220703,791.588440 1314.477783,785.080688 
	C1317.394287,779.253235 1319.837891,773.069641 1324.347534,768.572144 
	C1332.383545,760.557739 1341.395264,753.789978 1353.927612,754.960205 
	C1357.727173,755.315063 1361.589722,754.940063 1365.420166,755.032654 
	C1371.261353,755.173706 1375.943970,758.302612 1380.180054,761.734192 
	C1388.207275,768.236877 1392.031738,777.097961 1393.022827,787.280273 
	C1393.094849,788.021118 1393.691162,788.696960 1393.944824,789.436890 
	C1394.652710,791.503052 1395.890869,793.585022 1395.898071,795.664307 
	C1396.019287,830.824585 1395.861938,865.986145 1396.072510,901.145569 
	C1396.124268,909.787720 1394.941895,918.448730 1397.732788,927.136169 
	C1399.257690,931.882812 1401.171021,934.038696 1405.920044,934.026001 
	C1418.084595,933.993469 1430.249268,933.996155 1442.413818,934.022278 
	C1449.861084,934.038269 1456.593018,933.121521 1458.493530,924.051575 
	C1459.824829,917.698975 1462.916748,911.383728 1462.767578,905.110107 
	C1462.142822,878.838440 1465.064819,852.528870 1461.205200,826.261719 
	C1459.338135,813.554993 1462.493164,800.487915 1458.305420,787.644592 
	C1456.227051,781.270813 1458.585938,774.033020 1455.395874,767.073975 
	C1453.294800,762.490417 1452.304810,757.121155 1450.505249,752.117432 
	C1448.364868,746.165833 1445.277100,741.120117 1442.130737,735.834717 
	C1435.991455,725.520813 1426.876099,718.682007 1416.729004,713.049194 
	C1412.650635,710.785217 1407.763550,709.982971 1403.672241,707.736389 
	C1397.320679,704.248535 1390.730835,702.761597 1383.557251,702.942627 
	C1376.063232,703.131714 1368.560913,702.978333 1361.062134,702.991638 
	C1359.901489,702.993713 1358.606812,702.766357 1357.602173,703.188232 
	C1350.142456,706.320129 1342.655396,709.182861 1334.783447,711.322693 
	C1328.294556,713.086731 1322.453125,716.226624 1315.444092,713.127686 
	C1312.178223,711.683777 1308.293701,711.612122 1304.676392,710.995483 
	C1298.555908,709.951904 1292.424438,708.971558 1286.299072,707.956177 
	C1285.979736,707.903259 1285.647827,707.820862 1285.364502,707.671204 
	C1274.473022,701.919434 1259.733154,704.096619 1251.462158,712.956604 
	C1247.529419,717.169189 1245.570923,722.337891 1244.884766,728.160034 
	C1244.383789,732.411011 1242.959473,736.553162 1241.895386,740.956238 
	C1238.080322,736.491882 1234.037964,732.988159 1231.563599,728.600159 
	C1227.014893,720.533386 1218.574341,717.807861 1211.644775,713.285522 
	C1206.846924,710.154480 1200.332886,709.646851 1194.576172,708.000305 
	C1193.955200,707.822693 1193.252930,707.943542 1192.618408,707.796082 
	C1185.785156,706.207336 1179.031128,703.894226 1172.109863,703.170776 
	C1164.362427,702.361023 1156.440796,702.596130 1148.639893,703.089417 
	C1140.100220,703.629456 1131.268799,703.871094 1123.215454,706.354004 
	C1117.309570,708.174866 1111.155273,708.348328 1105.189453,710.348083 
	C1098.384399,712.629150 1091.476807,715.224060 1084.507202,717.308655 
	C1079.195435,718.897400 1074.294189,721.873169 1069.231323,724.276184 
	C1062.795410,727.331055 1057.441040,738.303589 1060.331299,743.664246 
	C1063.167969,748.925537 1066.201660,754.431213 1070.424683,758.508118 
	C1076.077148,763.964966 1083.503052,766.958801 1091.454956,767.990662 
	C1096.611084,768.659790 1101.299927,767.308655 1106.083618,765.156738 
	C1111.387207,762.770935 1118.051758,762.680786 1122.546265,759.418030 
	C1127.719116,755.662903 1133.514038,756.247009 1138.597778,755.461670 
	C1152.947876,753.244995 1166.883667,755.997375 1179.010742,765.007568 
	C1182.793945,767.818481 1183.294067,777.883911 1179.642090,780.772583 
	C1174.873413,784.544434 1169.572876,786.233276 1163.461548,786.066162 
	C1159.743042,785.964355 1155.984253,786.526062 1152.277832,787.038086 
	C1148.814697,787.516479 1145.420898,788.524414 1141.953613,788.942566 
	C1134.870117,789.796753 1127.757446,790.406555 1120.659180,791.141235 
	C1120.357544,791.172424 1120.089233,791.463318 1119.791870,791.604675 
	C1111.311523,795.636902 1101.815308,793.495544 1092.810791,796.392029 
	C1085.742065,798.665894 1079.168213,801.487732 1073.466431,805.519104 
	C1066.100220,810.727356 1059.475098,817.369934 1055.744385,825.888855 
	C1052.967163,832.230530 1049.871460,838.893250 1049.254395,845.627136 
	C1047.855347,860.894897 1048.325562,876.344543 1054.166504,890.839783 
	C1056.621948,896.933655 1060.577393,902.488037 1064.299194,907.984131 
	C1066.805908,911.685852 1069.674683,915.385315 1073.131104,918.148010 
	C1079.375854,923.139587 1086.029297,927.675171 1092.830811,931.886414 
	C1095.402588,933.478760 1098.828979,933.782410 1101.918091,934.419434 
	C1104.453125,934.942261 1107.059448,935.158997 1109.645142,935.387695 
	C1115.307739,935.888672 1121.006836,936.884460 1126.634644,936.592468 
	C1131.553467,936.337280 1136.395142,934.596802 1141.899048,933.372742 
	C1137.571045,939.338074 1133.689941,944.261841 1135.996948,951.171021 
	C1136.596191,952.965637 1137.977051,954.758789 1137.873413,956.485046 
	C1137.352661,965.152588 1140.293579,974.291748 1134.945801,982.343567 
	C1132.161743,986.535461 1129.653687,990.950623 1123.845459,992.136230 
	C1120.681763,992.781982 1117.242798,994.347839 1114.949585,996.558411 
	C1108.309448,1002.958984 1106.555420,1011.381958 1107.069946,1020.281311 
	C1107.214478,1022.782288 1109.070557,1025.302612 1108.832642,1027.683350 
	C1108.296875,1033.044312 1112.035645,1036.367065 1114.285767,1040.235474 
	C1115.417847,1042.181396 1118.966919,1042.570923 1121.080444,1044.128906 
	C1125.175903,1047.147827 1130.708008,1049.739014 1132.577881,1053.889282 
	C1135.186768,1059.680176 1135.757690,1066.726807 1135.847412,1073.254639 
	C1136.188232,1098.080444 1135.835938,1122.915283 1136.077148,1147.743408 
	C1136.148071,1155.023804 1137.113525,1162.322388 1138.087891,1169.556152 
	C1138.569702,1173.134033 1139.704468,1176.708130 1141.096191,1180.054199 
	C1142.322388,1183.001831 1144.375244,1185.596802 1145.956055,1188.407837 
	C1147.680420,1191.474243 1149.195068,1194.659912 1150.952026,1197.706543 
	C1158.436157,1210.684937 1170.902222,1217.910645 1183.811768,1223.531128 
	C1191.492554,1226.875122 1200.692017,1227.258789 1209.283081,1227.807373 
	C1215.489990,1228.203979 1221.846191,1226.864258 1228.085938,1225.956543 
	C1232.974243,1225.245361 1237.812012,1224.117065 1242.620239,1222.957764 
	C1244.778809,1222.437622 1246.928589,1221.605347 1248.875244,1220.537109 
	C1253.212524,1218.156616 1257.550171,1215.731567 1261.641846,1212.961670 
	C1265.547363,1210.317505 1270.721313,1207.927979 1272.444946,1204.117920 
	C1274.314819,1199.984741 1274.035889,1193.946289 1272.548096,1189.448608 
	C1270.381958,1182.899902 1266.274658,1176.997437 1263.034058,1170.799072 
	C1257.998413,1161.167114 1245.543579,1157.413452 1235.407715,1161.754395 
	C1230.941040,1163.667358 1225.816284,1164.265747 1220.917358,1164.855103 
	C1218.454834,1165.151367 1215.016479,1164.971069 1213.418701,1163.493286 
	C1206.656616,1157.239868 1202.780518,1148.926514 1200.214722,1140.312744 
	C1198.526855,1134.646240 1198.156494,1128.433960 1198.113770,1122.459473 
	C1197.984009,1104.346802 1196.708374,1086.074707 1203.038330,1068.550049 
	C1204.153076,1065.463623 1205.672607,1062.523193 1207.553467,1058.973877 
M1407.980713,1152.488647 
	C1405.526123,1155.285889 1403.339600,1158.389282 1400.563843,1160.819580 
	C1393.818237,1166.725220 1386.774902,1172.485596 1377.044434,1171.908936 
	C1371.681396,1171.591064 1366.479004,1172.745850 1360.864868,1169.552612 
	C1357.415405,1167.590576 1352.733887,1166.121826 1349.657104,1163.622192 
	C1340.535034,1156.210938 1337.294189,1145.282959 1336.205078,1134.178223 
	C1335.028442,1122.179077 1335.092651,1110.033447 1335.086914,1097.951538 
	C1335.081421,1086.369751 1335.658691,1074.786865 1336.020874,1063.205933 
	C1336.320679,1053.624634 1336.652344,1044.044067 1337.027710,1034.465576 
	C1337.173706,1030.738037 1338.722656,1026.500244 1337.438721,1023.405090 
	C1335.110352,1017.792725 1337.534058,1011.375793 1333.235962,1006.049988 
	C1331.134888,1003.446655 1326.866577,997.327881 1323.357666,997.026611 
	C1314.370972,996.255310 1305.377319,995.337524 1296.370850,995.120544 
	C1291.903931,995.013000 1287.420532,996.689148 1282.913330,996.904724 
	C1274.985474,997.283752 1267.987915,1004.092163 1267.987061,1011.995056 
	C1267.984253,1035.486450 1267.432007,1058.994629 1268.142944,1082.464600 
	C1268.846069,1105.679199 1265.840820,1128.911377 1270.462280,1152.206177 
	C1272.209229,1161.011475 1273.607666,1170.005737 1276.404785,1178.470459 
	C1279.597534,1188.132324 1285.535889,1196.647705 1292.147583,1204.395508 
	C1299.815674,1213.381104 1309.972046,1219.611572 1320.737549,1223.500610 
	C1329.613037,1226.707153 1339.642944,1227.422607 1349.217041,1227.789795 
	C1358.616821,1228.150513 1368.078125,1226.500610 1377.527588,1226.048096 
	C1404.637451,1224.749878 1431.800415,1227.949219 1458.947388,1224.298706 
	C1469.260864,1222.911743 1476.038574,1218.232910 1480.826782,1211.528198 
	C1486.081787,1215.594849 1491.344116,1220.106567 1497.080200,1223.902588 
	C1499.589722,1225.563354 1503.378296,1225.211426 1506.049438,1226.722046 
	C1515.588257,1232.116699 1524.218750,1228.040405 1533.044800,1224.839478 
	C1539.360596,1222.549072 1543.881348,1217.861816 1547.411011,1212.674072 
	C1550.443970,1208.216553 1552.709351,1202.838257 1553.779175,1197.556152 
	C1554.848755,1192.274780 1554.425049,1186.564941 1553.858032,1181.125977 
	C1553.523682,1177.917969 1551.690308,1174.850952 1550.440674,1171.756958 
	C1548.185913,1166.173950 1543.859619,1162.425171 1539.408936,1158.563843 
	C1534.460327,1154.270386 1529.288086,1151.127075 1522.633911,1151.002930 
	C1517.970703,1150.915894 1513.301025,1150.874023 1508.640137,1151.010254 
	C1499.749634,1151.269775 1492.992798,1155.898682 1487.001953,1161.942993 
	C1484.484741,1164.482666 1482.061401,1167.115234 1478.758179,1170.585327 
	C1480.005371,1123.487427 1477.125977,1077.803101 1480.963623,1032.206665 
	C1481.339600,1027.739990 1480.986816,1023.213989 1481.020874,1018.715881 
	C1481.062744,1013.201599 1479.803955,1008.448914 1476.219727,1003.779175 
	C1471.876221,998.119934 1465.884277,995.957947 1459.853760,995.253357 
	C1450.978271,994.216370 1441.850342,994.467651 1432.910278,995.179260 
	C1427.488770,995.610779 1421.460815,996.935974 1418.729980,1002.722961 
	C1416.700806,1007.023376 1414.290527,1011.710449 1414.213135,1016.262024 
	C1413.951416,1031.665894 1414.959595,1047.086792 1414.915771,1062.499634 
	C1414.846558,1086.911133 1414.326294,1111.321167 1413.963623,1135.731323 
	C1413.947144,1136.837891 1413.757446,1137.994751 1413.384521,1139.033569 
	C1411.834595,1143.349976 1410.183594,1147.630249 1407.980713,1152.488647 
z"></path>
<path fill="#F7F7F7" opacity="1.000000" stroke="none" d="
M732.934082,934.928833 
	C719.105530,934.957581 705.266052,935.323425 691.452759,934.878723 
	C684.077576,934.641418 676.182556,934.360107 669.562866,931.601440 
	C663.481873,929.067200 657.030884,929.053040 651.223389,926.587524 
	C642.167664,922.743042 633.107605,918.774780 624.513062,914.020752 
	C617.845093,910.332397 611.462463,905.847717 605.723633,900.834839 
	C599.299438,895.223267 593.386169,888.916687 587.903809,882.365845 
	C581.605591,874.839844 575.765625,866.956177 572.827454,857.225403 
	C571.414795,852.546814 568.218689,848.434875 566.442261,843.830200 
	C564.575256,838.990601 563.218201,833.920227 562.039612,828.857361 
	C560.488831,822.195862 558.914551,815.492065 558.116089,808.716248 
	C557.270935,801.543518 557.090881,794.265991 557.054626,787.032104 
	C557.022339,780.586487 555.812439,773.904846 559.858032,767.953247 
	C560.481628,767.035767 559.964844,765.347351 559.985962,764.015625 
	C560.103943,756.570129 561.438904,749.482910 564.608643,742.597290 
	C566.983337,737.438660 568.049988,731.694092 570.063599,726.347717 
	C571.519897,722.480896 573.231934,718.622925 575.432678,715.142029 
	C580.087341,707.779663 584.704102,700.318237 590.153076,693.555420 
	C595.007996,687.529968 601.716614,682.935791 606.220764,676.707397 
	C610.737549,670.461304 617.187500,667.042664 622.980591,662.854187 
	C629.646912,658.034241 637.638062,655.090393 644.794739,650.890198 
	C649.899475,647.894104 655.945190,647.818298 660.885925,645.591064 
	C670.525635,641.245483 680.189392,639.764099 690.486816,639.940613 
	C701.813904,640.134949 713.199219,639.325684 724.458496,640.220398 
	C731.768005,640.801147 739.259827,642.027771 746.138489,645.464050 
	C749.047485,646.917358 752.601379,647.033386 755.808228,647.946777 
	C761.432068,649.548340 767.112915,651.032410 772.579590,653.074829 
	C776.267700,654.452942 779.602478,656.757935 783.143127,658.554138 
	C788.133423,661.085693 793.257202,663.366882 798.162109,666.050903 
	C805.203125,669.903687 812.528564,677.745850 808.850708,687.188721 
	C806.032898,694.423218 801.931152,701.190979 798.048767,707.964783 
	C795.739258,711.994324 793.148804,715.725586 789.207275,718.774963 
	C783.220703,723.406555 780.291504,726.448059 771.164978,721.723083 
	C762.047668,717.002808 752.493958,713.029480 743.767700,707.689209 
	C739.259399,704.930298 734.227905,704.688721 730.004639,702.665100 
	C718.671448,697.234558 706.955017,699.835938 695.823486,700.679016 
	C689.328613,701.170898 681.104187,702.038452 675.258606,707.737305 
	C672.848022,710.087341 669.178650,711.543579 665.823669,712.439087 
	C660.099121,713.967102 656.967651,718.518860 653.027222,722.136108 
	C648.731445,726.079651 644.268860,729.931091 640.552795,734.384888 
	C638.093750,737.332153 636.735168,741.228088 635.037170,744.772766 
	C632.462769,750.147217 629.776306,755.489807 627.614563,761.032043 
	C626.289246,764.429565 625.226929,768.158630 625.135132,771.766541 
	C624.830261,783.759460 624.682373,795.779663 625.206238,807.757385 
	C625.379822,811.727783 627.749939,815.607544 629.148926,819.516968 
	C630.063416,822.072632 630.815002,824.718994 632.028381,827.129028 
	C635.039001,833.109070 637.807373,839.288818 641.517334,844.822327 
	C648.407715,855.099670 658.258118,861.786804 669.313171,867.314941 
	C676.905090,871.111267 684.546936,873.403931 692.760498,875.386536 
	C703.552429,877.991577 714.165222,876.882202 724.748596,876.625671 
	C730.521790,876.485657 736.202698,872.681580 741.935242,870.556824 
	C742.680054,870.280701 743.484619,870.165710 744.952637,870.218872 
	C741.650330,872.679565 737.864075,875.467529 733.624634,877.008911 
	C720.576721,881.752869 707.084290,881.202148 693.662842,878.979370 
	C672.824890,875.528381 654.555847,866.799744 640.777222,850.479004 
	C616.086121,821.232300 612.307800,776.438721 630.440125,741.625122 
	C654.601562,695.235840 714.985535,681.962341 754.505371,707.901855 
	C759.483765,711.169556 764.758606,714.111511 770.199158,716.519775 
	C778.411621,720.154846 783.926453,718.914612 788.883850,711.500916 
	C794.215637,703.527283 798.880676,695.043701 803.139221,686.437561 
	C806.341003,679.967163 804.870483,675.395386 798.908386,671.324890 
	C792.886597,667.213745 786.685364,663.262817 780.199951,659.952454 
	C759.323059,649.296387 736.871582,644.141785 713.667419,642.138184 
	C687.229370,639.855469 661.870605,643.740234 638.320068,656.580078 
	C575.147217,691.022034 545.125244,766.862732 567.464417,835.483398 
	C578.100281,868.154236 597.379944,894.590576 627.847595,910.647339 
	C679.369629,937.800049 732.216797,937.071228 785.119690,913.821167 
	C804.344910,905.372131 816.405823,891.117554 819.567017,870.039001 
	C823.229614,845.617310 820.311340,821.133301 819.642822,796.692139 
	C819.573120,794.146667 815.984558,790.891541 813.247070,789.451416 
	C810.507751,788.010315 806.774841,788.015320 803.500122,788.116882 
	C793.368286,788.431274 783.239136,788.972839 773.124390,789.654724 
	C763.028625,790.335266 760.712463,794.148987 761.169495,804.336853 
	C761.741821,817.093689 761.729797,829.952942 760.770264,842.677490 
	C760.037231,852.399353 756.159912,861.393860 748.737976,868.302734 
	C747.784912,869.189880 746.229858,869.430298 744.953613,869.970337 
	C745.434204,868.944702 745.719177,867.752319 746.427734,866.921082 
	C750.422729,862.233826 752.722961,856.761963 755.317017,851.202759 
	C759.826538,841.538818 758.401184,831.400452 759.686340,821.562195 
	C760.573975,814.766785 758.458130,807.616028 758.031250,800.602966 
	C757.421448,790.584473 764.569641,786.582458 772.864014,786.164551 
	C786.163269,785.494507 799.524475,786.167419 812.852722,785.915588 
	C820.700806,785.767395 824.700439,791.974854 824.813232,797.694641 
	C825.289490,821.851318 825.653931,846.047668 824.713989,870.177124 
	C824.313843,880.450684 820.302917,890.394165 813.676392,898.942932 
	C807.602295,906.778992 800.201782,912.457031 790.987915,916.157593 
	C786.393616,918.002808 782.428223,921.385132 777.867981,923.352417 
	C773.835938,925.091797 769.368652,925.816101 765.102356,927.019836 
	C760.857666,928.217529 756.624023,929.454163 752.385498,930.673645 
	C752.470398,931.110779 752.555298,931.547852 752.640198,931.984924 
	C767.502197,931.984924 782.366211,931.859070 797.224609,932.093079 
	C800.131348,932.138855 803.012878,933.591431 805.912903,934.369385 
	C806.836975,934.617249 807.774963,934.841919 808.720947,934.974670 
	C813.659363,935.667725 819.560974,934.863586 823.327454,937.329651 
	C829.544739,941.400452 836.775024,940.963867 843.198975,944.175842 
	C852.018616,948.585571 861.262634,951.976807 869.670593,957.465576 
	C872.538208,959.337646 878.400574,958.997314 881.669128,957.303284 
	C886.157593,954.976990 890.627441,952.206665 893.523010,946.785095 
	C895.457458,943.163330 895.798340,940.104492 895.940491,936.605408 
	C896.123108,932.112976 895.599365,927.565979 896.078125,923.117615 
	C896.745667,916.915161 893.475708,912.089661 891.377441,906.809753 
	C890.149353,903.719421 889.179626,900.526672 887.961060,897.432190 
	C887.081543,895.198669 885.795837,893.115417 885.021057,890.852234 
	C883.226990,885.611816 881.960327,880.168823 879.867432,875.058777 
	C877.688354,869.738342 874.676270,864.765137 872.259033,859.533569 
	C871.205627,857.253662 870.798828,854.683411 869.971069,852.289001 
	C868.737244,848.719788 867.332642,845.209290 866.107361,841.637268 
	C864.673096,837.456177 863.463928,833.195312 861.944824,829.046814 
	C860.911865,826.226135 859.368713,823.594116 858.306885,820.782104 
	C855.129761,812.368408 852.165466,803.873779 848.945435,795.476929 
	C846.735962,789.715332 844.153198,784.097595 841.895081,778.353577 
	C839.816345,773.066040 838.025879,767.665344 835.966064,762.369873 
	C833.788330,756.771057 831.403076,751.253357 829.178955,745.672180 
	C825.134705,735.523987 818.212463,726.341614 819.854126,714.339050 
	C820.621033,708.731384 825.163208,703.076721 830.884888,703.019714 
	C842.550110,702.903503 854.247131,702.478027 865.873230,703.162720 
	C873.658508,703.621277 879.645630,708.511353 885.057373,714.088562 
	C891.453369,720.680054 892.985535,729.769653 897.684631,737.195984 
	C898.005798,737.703552 898.013672,738.474731 897.998596,739.119385 
	C897.872009,744.507751 901.214050,748.729187 902.763977,753.547424 
	C904.062988,757.585449 904.623840,761.877258 906.096008,765.839478 
	C908.092529,771.213318 910.743164,776.340576 912.910156,781.656372 
	C913.690430,783.570374 913.576965,785.857666 914.400940,787.743225 
	C916.808655,793.252930 919.313477,798.734741 922.098511,804.061035 
	C925.226501,810.043152 928.368103,816.075989 932.210266,821.594971 
	C933.528137,823.487915 936.994873,824.755920 939.446655,824.705139 
	C941.314453,824.666443 943.932373,822.476440 944.833069,820.584656 
	C949.390930,811.012573 953.672241,801.297180 957.689087,791.484070 
	C959.835510,786.240479 961.089294,780.638733 963.038086,775.305359 
	C965.589844,768.322205 967.831787,761.124146 971.318237,754.613525 
	C974.669861,748.354675 976.679443,741.746155 979.100342,735.197693 
	C981.166321,729.609375 985.133301,724.546204 986.293518,718.850220 
	C987.475037,713.050293 991.127686,710.138489 995.041565,706.997437 
	C996.304016,705.984314 998.072266,705.178772 999.664490,705.066895 
	C1011.158630,704.259277 1022.663452,703.264343 1034.172363,703.160828 
	C1039.378540,703.114075 1044.602539,704.962524 1049.817017,705.959106 
	C1052.940308,706.556030 1053.684570,708.568542 1054.121948,711.595154 
	C1055.885132,723.792847 1049.952759,733.761780 1045.375366,744.182251 
	C1043.098145,749.366272 1041.099365,754.673767 1039.022949,759.944458 
	C1036.760254,765.687561 1034.826172,771.578613 1032.243774,777.171936 
	C1029.792969,782.480286 1027.785522,787.901184 1025.918701,793.426147 
	C1024.852661,796.580811 1022.797180,799.390381 1021.321289,802.420593 
	C1020.130371,804.865601 1018.967285,807.349792 1018.097046,809.919922 
	C1016.275269,815.300476 1014.914246,820.850159 1012.859741,826.134277 
	C1011.497803,829.636963 1009.133728,832.736877 1007.462646,836.137146 
	C1006.421509,838.255737 1005.929260,840.636475 1005.027710,842.832703 
	C1002.426453,849.170166 999.570435,855.408508 997.145142,861.810974 
	C995.182617,866.991760 993.861816,872.413391 991.957764,877.619019 
	C990.111938,882.665710 987.853333,887.560120 985.834717,892.545227 
	C983.528687,898.240173 981.663940,904.149475 978.929138,909.626953 
	C974.891418,917.713928 974.572021,927.296387 968.385132,934.566345 
	C966.824402,936.400269 967.091248,939.721069 966.297913,942.290527 
	C964.610352,947.755737 963.138733,953.327576 960.932678,958.584595 
	C955.766724,970.895203 951.886841,984.034729 941.777344,993.562012 
	C935.826660,999.170044 929.797119,1004.965698 922.899719,1009.208252 
	C917.765930,1012.365906 910.882019,1012.527405 905.305603,1015.147217 
	C892.996216,1020.930054 880.182373,1017.072815 867.649170,1017.771301 
	C862.486755,1018.058960 857.111267,1015.866638 851.949890,1014.391907 
	C848.024780,1013.270447 844.155396,1011.762268 840.496338,1009.951111 
	C836.179626,1007.814392 832.196899,1005.011047 827.919739,1002.784180 
	C823.856384,1000.668335 819.616882,998.885193 815.423462,997.026611 
	C811.943481,995.484192 808.416443,994.048035 804.914734,992.554260 
	C804.620544,992.428711 804.372375,992.102783 804.082275,992.073669 
	C793.295959,990.989075 782.561768,986.634949 771.756042,989.236816 
	C761.144958,991.791809 750.659546,996.089844 744.822327,1006.153015 
	C743.081360,1009.154480 743.219360,1014.823486 744.916321,1017.961853 
	C751.421631,1029.992798 762.483521,1037.534790 774.333557,1043.529053 
	C779.883545,1046.336426 786.453674,1047.070068 792.466248,1049.034790 
	C799.873474,1051.455322 807.154907,1054.258545 814.541138,1056.746704 
	C820.072205,1058.609863 825.761780,1060.021118 831.236084,1062.028442 
	C836.695496,1064.030151 842.120300,1066.238159 847.292175,1068.880615 
	C852.583618,1071.584229 858.263000,1074.173584 862.478027,1078.176147 
	C867.782349,1083.213135 874.641418,1087.071411 877.187256,1094.803223 
	C877.869568,1096.875244 880.351257,1098.354858 882.984924,1101.141235 
	C882.984924,1097.822632 882.986206,1095.770996 882.984619,1093.719360 
	C882.979919,1087.696777 884.487610,1082.176880 887.449402,1076.839844 
	C888.945557,1074.143677 888.652588,1070.507446 889.888672,1067.602661 
	C892.193115,1062.187500 895.622009,1057.195679 897.467468,1051.656006 
	C899.319092,1046.097778 902.711975,1041.653687 906.136902,1037.325562 
	C909.509521,1033.063599 913.931030,1029.597412 918.070251,1025.985840 
	C922.449219,1022.165161 926.870056,1018.350037 931.588684,1014.974487 
	C935.328430,1012.299255 939.497314,1010.201477 943.566284,1008.015808 
	C946.908386,1006.220581 950.334290,1004.558716 953.817932,1003.058044 
	C955.996277,1002.119568 958.326660,1001.498230 960.630737,1000.894714 
	C965.808472,999.538452 970.999695,998.228577 976.208008,996.995178 
	C990.352600,993.645569 1004.768188,994.752869 1019.020508,995.293762 
	C1024.771118,995.512024 1031.200317,995.638123 1036.602783,999.585144 
	C1038.832153,1001.213806 1042.528564,1000.665222 1045.290161,1001.773560 
	C1049.702148,1003.544312 1053.926758,1005.801575 1058.164062,1007.982544 
	C1062.560059,1010.245056 1067.215576,1012.205566 1071.143311,1015.124634 
	C1076.168213,1018.859131 1081.201782,1022.916809 1085.103760,1027.746460 
	C1090.596436,1034.545166 1095.578247,1041.893799 1099.767212,1049.559937 
	C1102.505249,1054.570923 1105.932495,1059.442627 1106.259521,1065.797363 
	C1106.442749,1069.362061 1109.081177,1072.801514 1110.619873,1076.294556 
	C1111.068848,1077.313965 1111.851440,1078.293457 1111.952026,1079.342163 
	C1112.713867,1087.275269 1113.444458,1095.214233 1113.971436,1103.165649 
	C1114.224365,1106.982056 1113.662842,1110.868652 1114.087646,1114.654175 
	C1115.001221,1122.796387 1105.518677,1133.332520 1096.994019,1132.046265 
	C1095.869507,1131.876709 1094.301880,1131.672241 1093.582520,1132.264771 
	C1088.215454,1136.685425 1081.913330,1134.922607 1076.006348,1134.944214 
	C1038.174438,1135.083008 1000.341431,1135.088623 962.509888,1134.911377 
	C958.301758,1134.891724 954.713135,1136.280884 953.513306,1139.618652 
	C952.691345,1141.905151 953.997131,1146.094971 955.838013,1147.990112 
	C961.763550,1154.090576 967.758545,1160.545898 974.926147,1164.881592 
	C980.514893,1168.262085 986.444031,1171.700562 993.846191,1172.576172 
	C998.753845,1173.156616 1003.789246,1173.797119 1008.741638,1173.843018 
	C1012.510254,1173.878052 1017.358276,1173.853882 1019.845703,1171.692261 
	C1025.166016,1167.068848 1031.890991,1165.355957 1037.489258,1161.406738 
	C1042.166260,1158.107544 1047.787964,1155.661865 1053.349487,1154.291748 
	C1056.489868,1153.517822 1061.208252,1154.637817 1063.733154,1156.710815 
	C1071.730347,1163.276733 1077.520386,1171.895508 1083.001221,1180.632080 
	C1084.777954,1183.464233 1087.312866,1186.267090 1087.819214,1189.358887 
	C1088.965332,1196.358276 1086.493896,1202.057739 1079.502808,1205.239502 
	C1074.167236,1207.667847 1068.588745,1209.879639 1063.860352,1213.233521 
	C1059.330444,1216.446533 1054.594727,1217.329224 1049.398926,1218.215820 
	C1044.986084,1218.968628 1040.940552,1221.657715 1036.568481,1222.923218 
	C1031.826782,1224.295898 1026.898926,1225.029785 1022.045471,1226.009155 
	C1018.612915,1226.701660 1015.194458,1227.554932 1011.725708,1227.958496 
	C1003.056396,1228.967529 994.303711,1231.246582 985.890015,1226.520630 
	C984.717346,1225.861938 983.002747,1226.000000 981.546936,1226.041870 
	C974.172791,1226.254395 967.447266,1224.512329 960.593811,1221.496216 
	C952.626892,1217.990112 944.135498,1215.501587 937.013245,1210.405762 
	C929.867371,1205.292969 922.879150,1199.831665 916.505432,1193.800659 
	C908.588623,1186.309448 902.325562,1177.380981 897.195496,1167.713379 
	C894.650391,1162.917358 892.049011,1158.151123 889.031860,1152.552612 
	C888.602661,1154.628296 888.437866,1156.091064 887.992004,1157.462769 
	C886.338196,1162.550781 884.618286,1167.617676 882.867859,1172.673340 
	C882.087769,1174.926270 881.517517,1177.351196 880.262146,1179.322266 
	C875.977112,1186.050171 872.048157,1193.163818 866.782349,1199.057007 
	C862.758972,1203.559448 857.148621,1206.833984 851.825928,1209.937256 
	C845.086365,1213.866699 838.059570,1217.387695 830.890015,1220.463379 
	C826.677612,1222.270508 821.844727,1222.571899 817.472107,1224.076904 
	C808.154175,1227.283936 798.129028,1223.979004 789.268250,1226.516479 
	C782.181152,1228.545898 776.496765,1224.755249 769.957214,1225.789429 
	C763.453491,1226.818115 756.584473,1226.630005 750.016479,1225.825562 
	C744.424561,1225.140503 739.050781,1222.755981 733.548096,1221.240723 
	C726.983398,1219.432983 720.285400,1218.048218 713.834595,1215.909180 
	C709.475891,1214.463989 705.369019,1212.174072 701.283691,1210.008911 
	C695.213623,1206.791626 688.846436,1203.914307 683.359497,1199.869751 
	C675.491028,1194.069824 667.255371,1188.406006 662.029114,1179.776733 
	C660.509766,1177.268066 660.029968,1174.730225 662.733521,1171.892700 
	C666.872131,1167.548828 670.170227,1162.416138 673.994873,1157.757568 
	C677.331909,1153.692993 680.959229,1149.867554 684.339600,1145.837158 
	C685.430298,1144.536621 685.895691,1142.671631 687.074890,1141.492554 
	C691.665283,1136.902588 701.358032,1135.732910 707.235352,1138.671387 
	C710.477295,1140.292358 714.623047,1140.819824 717.067993,1143.180054 
	C723.222351,1149.121338 732.065430,1149.853882 738.486816,1155.430908 
	C742.000061,1158.482178 747.561707,1159.134766 752.140991,1161.011963 
	C755.518494,1162.396484 758.703857,1164.318237 762.160339,1165.416992 
	C764.441833,1166.142212 767.051453,1165.944580 769.515808,1165.964355 
	C776.847412,1166.023193 784.180420,1166.042114 791.511719,1165.965698 
	C796.731018,1165.911255 800.834106,1163.204834 805.128418,1160.518433 
	C810.152222,1157.375854 814.602844,1153.828491 816.736572,1148.305298 
	C817.710388,1145.784424 817.888672,1142.529175 817.250793,1139.891479 
	C815.197693,1131.401489 808.423706,1126.638428 801.727417,1122.079590 
	C797.769287,1119.384888 793.498535,1117.125854 789.258179,1114.878906 
	C787.022827,1113.694336 784.497559,1113.070068 782.197266,1111.992065 
	C778.351685,1110.189941 774.592102,1108.205078 770.768372,1106.354858 
	C770.201294,1106.080322 769.481445,1106.121948 768.832397,1106.016479 
	C764.694031,1105.343262 759.591919,1105.956787 756.617798,1103.729248 
	C750.419189,1099.086548 741.965576,1101.636353 736.351562,1096.227173 
	C735.982483,1095.871582 735.054810,1096.160400 734.423889,1096.002075 
	C727.639038,1094.299805 720.791016,1092.879272 714.924988,1088.588135 
	C713.077454,1087.236694 710.460083,1086.976807 708.260193,1086.060791 
	C698.361145,1081.938843 690.616333,1074.908813 683.895020,1066.872925 
	C680.897522,1063.289185 679.460449,1058.445679 676.925720,1054.419189 
	C672.498657,1047.386719 671.751160,1039.714233 671.846985,1031.681030 
	C671.873352,1029.476440 669.573303,1027.237671 669.618713,1025.041016 
	C669.727356,1019.790405 670.570312,1014.552429 671.180420,1009.316772 
	C671.307861,1008.222595 671.832581,1007.175171 671.964355,1006.080933 
	C672.679138,1000.144287 672.165100,993.748291 674.257080,988.357666 
	C677.908997,978.947876 682.286865,969.908386 689.675354,962.228760 
	C698.257507,953.308289 708.204529,946.927551 719.014465,941.569946 
	C723.519043,939.337402 728.452026,937.969116 733.775879,935.657959 
	C737.238892,934.951111 740.116272,934.794128 742.993591,934.637146 
	C742.944458,934.145081 742.895264,933.653015 742.846130,933.160950 
	C739.542114,933.750244 736.238098,934.339600 732.934082,934.928833 
M981.746887,889.148926 
	C1003.636230,834.624695 1025.534546,780.104004 1047.388184,725.565430 
	C1048.492676,722.809021 1049.564087,719.955688 1050.039551,717.047424 
	C1051.208740,709.894714 1048.796509,706.964783 1041.598999,706.900146 
	C1029.941040,706.795532 1018.280640,706.937988 1006.621643,707.020447 
	C996.872498,707.089417 992.669983,710.311035 989.052612,719.438416 
	C976.088135,752.151062 963.043152,784.832214 949.868591,817.460693 
	C947.695557,822.842590 945.113281,828.592468 938.191956,829.089233 
	C931.129089,829.596069 928.215698,823.926636 925.256226,818.935242 
	C914.016174,799.978760 906.326172,779.467529 899.008667,758.779297 
	C894.534851,746.130737 890.029236,733.463379 884.752258,721.140930 
	C881.812561,714.276367 876.381714,708.231201 868.627747,707.481262 
	C856.138306,706.273438 843.480225,705.977234 830.939453,706.469543 
	C824.270813,706.731384 821.441589,712.038025 822.971436,718.770142 
	C823.957825,723.111206 825.484070,727.369568 827.158081,731.507324 
	C833.379089,746.885193 840.024719,762.095520 846.031982,777.554871 
	C861.541443,817.467590 876.476868,857.606567 892.335815,897.378418 
	C897.439026,910.176514 900.342346,922.974426 900.069031,936.645203 
	C899.706421,954.784180 879.166931,966.527832 863.083435,958.010437 
	C854.319031,953.369080 845.403198,948.790527 836.109192,945.412292 
	C802.994812,933.375610 769.153259,929.438477 734.683838,939.052368 
	C678.911438,954.607788 664.916321,1001.981262 677.562134,1045.819946 
	C683.756592,1067.294067 700.690125,1079.518799 720.874084,1086.803101 
	C738.506531,1093.166626 756.660034,1098.070679 774.429565,1104.074707 
	C788.324768,1108.769653 801.741638,1114.630737 812.805298,1124.695312 
	C821.595764,1132.692017 824.269043,1142.470825 818.958740,1151.460327 
	C816.377502,1155.830200 812.153137,1159.707764 807.823120,1162.482544 
	C790.350952,1173.679443 771.630554,1173.162354 753.320679,1165.430786 
	C736.373047,1158.274292 720.108154,1149.508057 703.492004,1141.556274 
	C696.672974,1138.292847 692.931885,1139.249023 688.204041,1144.969604 
	C681.209900,1153.432373 674.223328,1161.901367 667.210022,1170.348267 
	C663.342773,1175.005981 663.289734,1177.122803 667.969971,1181.334595 
	C672.664612,1185.559204 677.457153,1189.765747 682.655029,1193.325684 
	C723.162781,1221.068115 767.787659,1228.491821 815.470947,1219.266968 
	C832.566467,1215.959717 848.008545,1208.574707 860.807129,1196.525879 
	C881.551697,1176.996582 886.467041,1152.152832 883.417297,1125.154541 
	C880.711792,1101.203613 868.055664,1083.684326 846.553040,1072.902710 
	C837.677856,1068.452637 828.510437,1064.419067 819.140686,1061.160034 
	C804.412109,1056.036987 789.258179,1052.131958 774.550476,1046.955322 
	C761.775269,1042.458862 750.752197,1035.007690 743.098083,1023.460999 
	C736.496582,1013.502441 737.804016,1003.787415 746.566223,995.709106 
	C752.222900,990.493835 758.981567,987.335327 766.455261,985.941284 
	C789.561401,981.631348 810.511780,987.930237 830.555237,999.024902 
	C837.320007,1002.769409 844.334229,1006.217346 851.553955,1008.959656 
	C885.236938,1021.753296 935.245483,1013.079529 953.209045,963.820679 
	C962.249756,939.029907 971.961304,914.483887 981.746887,889.148926 
M987.507690,1223.181641 
	C990.159912,1223.418701 992.817322,1223.908691 995.463501,1223.853516 
	C1021.128540,1223.318848 1045.318604,1216.558105 1068.498535,1205.962402 
	C1072.651978,1204.063843 1076.469116,1201.147583 1079.944702,1198.129028 
	C1083.332886,1195.186401 1084.907959,1190.865356 1082.042603,1186.927002 
	C1075.697266,1178.205688 1069.195801,1169.540894 1062.056519,1161.473999 
	C1057.334717,1156.138550 1054.825195,1156.410034 1048.474976,1159.836670 
	C1042.919922,1162.834351 1037.254395,1165.641602 1031.810547,1168.828247 
	C1008.752563,1182.325439 986.864929,1178.615356 965.907471,1164.184692 
	C958.923950,1159.376221 952.285645,1153.822144 949.522766,1145.274658 
	C946.524414,1135.998535 950.205750,1131.027344 959.815002,1130.991577 
	C979.144287,1130.919678 998.473755,1130.893433 1017.803040,1130.809814 
	C1031.954224,1130.748657 1046.109009,1130.793335 1060.255127,1130.476807 
	C1070.880981,1130.239136 1081.557861,1130.046509 1092.098755,1128.842163 
	C1103.857422,1127.498779 1107.430664,1123.238770 1109.128174,1111.689331 
	C1111.351562,1096.562622 1107.899536,1082.242676 1102.960083,1068.175293 
	C1093.746704,1041.936279 1078.475708,1020.648376 1052.704224,1008.348206 
	C1032.693970,998.797852 1011.581787,995.623535 989.547668,998.011292 
	C959.496704,1001.267761 932.555542,1012.122559 912.888489,1035.295776 
	C883.284546,1070.177246 877.412842,1110.364624 894.722900,1152.489502 
	C911.451721,1193.199707 942.808105,1216.709106 987.507690,1223.181641 
z"></path>
<path fill="#F7F7F7" opacity="1.000000" stroke="none" d="
M1207.279297,1059.244629 
	C1205.672607,1062.523193 1204.153076,1065.463623 1203.038330,1068.550049 
	C1196.708374,1086.074707 1197.984009,1104.346802 1198.113770,1122.459473 
	C1198.156494,1128.433960 1198.526855,1134.646240 1200.214722,1140.312744 
	C1202.780518,1148.926514 1206.656616,1157.239868 1213.418701,1163.493286 
	C1215.016479,1164.971069 1218.454834,1165.151367 1220.917358,1164.855103 
	C1225.816284,1164.265747 1230.941040,1163.667358 1235.407715,1161.754395 
	C1245.543579,1157.413452 1257.998413,1161.167114 1263.034058,1170.799072 
	C1266.274658,1176.997437 1270.381958,1182.899902 1272.548096,1189.448608 
	C1274.035889,1193.946289 1274.314819,1199.984741 1272.444946,1204.117920 
	C1270.721313,1207.927979 1265.547363,1210.317505 1261.641846,1212.961670 
	C1257.550171,1215.731567 1253.212524,1218.156616 1248.875244,1220.537109 
	C1246.928589,1221.605347 1244.778809,1222.437622 1242.620239,1222.957764 
	C1237.812012,1224.117065 1232.974243,1225.245361 1228.085938,1225.956543 
	C1221.846191,1226.864258 1215.489990,1228.203979 1209.283081,1227.807373 
	C1200.692017,1227.258789 1191.492554,1226.875122 1183.811768,1223.531128 
	C1170.902222,1217.910645 1158.436157,1210.684937 1150.952026,1197.706543 
	C1149.195068,1194.659912 1147.680420,1191.474243 1145.956055,1188.407837 
	C1144.375244,1185.596802 1142.322388,1183.001831 1141.096191,1180.054199 
	C1139.704468,1176.708130 1138.569702,1173.134033 1138.087891,1169.556152 
	C1137.113525,1162.322388 1136.148071,1155.023804 1136.077148,1147.743408 
	C1135.835938,1122.915283 1136.188232,1098.080444 1135.847412,1073.254639 
	C1135.757690,1066.726807 1135.186768,1059.680176 1132.577881,1053.889282 
	C1130.708008,1049.739014 1125.175903,1047.147827 1121.080444,1044.128906 
	C1118.966919,1042.570923 1115.417847,1042.181396 1114.285767,1040.235474 
	C1112.035645,1036.367065 1108.296875,1033.044312 1108.832642,1027.683350 
	C1109.070557,1025.302612 1107.214478,1022.782288 1107.069946,1020.281311 
	C1106.555420,1011.381958 1108.309448,1002.958984 1114.949585,996.558411 
	C1117.242798,994.347839 1120.681763,992.781982 1123.845459,992.136230 
	C1129.653687,990.950623 1132.161743,986.535461 1134.945801,982.343567 
	C1140.293579,974.291748 1137.352661,965.152588 1137.873413,956.485046 
	C1137.977051,954.758789 1136.596191,952.965637 1135.996948,951.171021 
	C1133.689941,944.261841 1137.571045,939.338074 1141.899048,933.372742 
	C1136.395142,934.596802 1131.553467,936.337280 1126.634644,936.592468 
	C1121.006836,936.884460 1115.307739,935.888672 1109.645142,935.387695 
	C1107.059448,935.158997 1104.453125,934.942261 1101.918091,934.419434 
	C1098.828979,933.782410 1095.402588,933.478760 1092.830811,931.886414 
	C1086.029297,927.675171 1079.375854,923.139587 1073.131104,918.148010 
	C1069.674683,915.385315 1066.805908,911.685852 1064.299194,907.984131 
	C1060.577393,902.488037 1056.621948,896.933655 1054.166504,890.839783 
	C1048.325562,876.344543 1047.855347,860.894897 1049.254395,845.627136 
	C1049.871460,838.893250 1052.967163,832.230530 1055.744385,825.888855 
	C1059.475098,817.369934 1066.100220,810.727356 1073.466431,805.519104 
	C1079.168213,801.487732 1085.742065,798.665894 1092.810791,796.392029 
	C1101.815308,793.495544 1111.311523,795.636902 1119.791870,791.604675 
	C1120.089233,791.463318 1120.357544,791.172424 1120.659180,791.141235 
	C1127.757446,790.406555 1134.870117,789.796753 1141.953613,788.942566 
	C1145.420898,788.524414 1148.814697,787.516479 1152.277832,787.038086 
	C1155.984253,786.526062 1159.743042,785.964355 1163.461548,786.066162 
	C1169.572876,786.233276 1174.873413,784.544434 1179.642090,780.772583 
	C1183.294067,777.883911 1182.793945,767.818481 1179.010742,765.007568 
	C1166.883667,755.997375 1152.947876,753.244995 1138.597778,755.461670 
	C1133.514038,756.247009 1127.719116,755.662903 1122.546265,759.418030 
	C1118.051758,762.680786 1111.387207,762.770935 1106.083618,765.156738 
	C1101.299927,767.308655 1096.611084,768.659790 1091.454956,767.990662 
	C1083.503052,766.958801 1076.077148,763.964966 1070.424683,758.508118 
	C1066.201660,754.431213 1063.167969,748.925537 1060.331299,743.664246 
	C1057.441040,738.303589 1062.795410,727.331055 1069.231323,724.276184 
	C1074.294189,721.873169 1079.195435,718.897400 1084.507202,717.308655 
	C1091.476807,715.224060 1098.384399,712.629150 1105.189453,710.348083 
	C1111.155273,708.348328 1117.309570,708.174866 1123.215454,706.354004 
	C1131.268799,703.871094 1140.100220,703.629456 1148.639893,703.089417 
	C1156.440796,702.596130 1164.362427,702.361023 1172.109863,703.170776 
	C1179.031128,703.894226 1185.785156,706.207336 1192.618408,707.796082 
	C1193.252930,707.943542 1193.955200,707.822693 1194.576172,708.000305 
	C1200.332886,709.646851 1206.846924,710.154480 1211.644775,713.285522 
	C1218.574341,717.807861 1227.014893,720.533386 1231.563599,728.600159 
	C1234.037964,732.988159 1238.080322,736.491882 1241.895386,740.956238 
	C1242.959473,736.553162 1244.383789,732.411011 1244.884766,728.160034 
	C1245.570923,722.337891 1247.529419,717.169189 1251.462158,712.956604 
	C1259.733154,704.096619 1274.473022,701.919434 1285.364502,707.671204 
	C1285.647827,707.820862 1285.979736,707.903259 1286.299072,707.956177 
	C1292.424438,708.971558 1298.555908,709.951904 1304.676392,710.995483 
	C1308.293701,711.612122 1312.178223,711.683777 1315.444092,713.127686 
	C1322.453125,716.226624 1328.294556,713.086731 1334.783447,711.322693 
	C1342.655396,709.182861 1350.142456,706.320129 1357.602173,703.188232 
	C1358.606812,702.766357 1359.901489,702.993713 1361.062134,702.991638 
	C1368.560913,702.978333 1376.063232,703.131714 1383.557251,702.942627 
	C1390.730835,702.761597 1397.320679,704.248535 1403.672241,707.736389 
	C1407.763550,709.982971 1412.650635,710.785217 1416.729004,713.049194 
	C1426.876099,718.682007 1435.991455,725.520813 1442.130737,735.834717 
	C1445.277100,741.120117 1448.364868,746.165833 1450.505249,752.117432 
	C1452.304810,757.121155 1453.294800,762.490417 1455.395874,767.073975 
	C1458.585938,774.033020 1456.227051,781.270813 1458.305420,787.644592 
	C1462.493164,800.487915 1459.338135,813.554993 1461.205200,826.261719 
	C1465.064819,852.528870 1462.142822,878.838440 1462.767578,905.110107 
	C1462.916748,911.383728 1459.824829,917.698975 1458.493530,924.051575 
	C1456.593018,933.121521 1449.861084,934.038269 1442.413818,934.022278 
	C1430.249268,933.996155 1418.084595,933.993469 1405.920044,934.026001 
	C1401.171021,934.038696 1399.257690,931.882812 1397.732788,927.136169 
	C1394.941895,918.448730 1396.124268,909.787720 1396.072510,901.145569 
	C1395.861938,865.986145 1396.019287,830.824585 1395.898071,795.664307 
	C1395.890869,793.585022 1394.652710,791.503052 1393.944824,789.436890 
	C1393.691162,788.696960 1393.094849,788.021118 1393.022827,787.280273 
	C1392.031738,777.097961 1388.207275,768.236877 1380.180054,761.734192 
	C1375.943970,758.302612 1371.261353,755.173706 1365.420166,755.032654 
	C1361.589722,754.940063 1357.727173,755.315063 1353.927612,754.960205 
	C1341.395264,753.789978 1332.383545,760.557739 1324.347534,768.572144 
	C1319.837891,773.069641 1317.394287,779.253235 1314.477783,785.080688 
	C1311.220703,791.588440 1312.391235,797.661987 1312.101929,803.907776 
	C1311.199097,823.399170 1309.092529,843.021057 1310.465820,862.378662 
	C1311.817139,881.426636 1311.606445,900.398438 1311.983398,919.404907 
	C1312.166138,928.619751 1306.237183,934.830994 1297.029053,934.969177 
	C1284.700684,935.154297 1272.367065,935.060486 1260.036255,934.992920 
	C1255.049316,934.965637 1251.003296,932.650024 1247.636108,929.133118 
	C1245.870361,927.288818 1244.736206,927.089844 1241.889160,928.149292 
	C1237.930908,929.622070 1233.131470,928.825623 1228.692749,929.017578 
	C1223.151245,929.257202 1218.619873,926.806885 1213.599121,924.730591 
	C1205.336792,921.313721 1196.232300,919.515137 1186.914185,921.477356 
	C1181.393433,922.639893 1175.704834,922.991638 1170.166016,924.085022 
	C1166.485229,924.811646 1162.917969,926.150024 1159.334229,927.319275 
	C1157.119507,928.041748 1154.968994,928.960693 1153.091553,929.676392 
	C1162.976318,930.423096 1173.311523,931.226685 1183.650513,931.976318 
	C1190.022949,932.438354 1195.405273,934.728088 1198.820923,940.375000 
	C1199.598389,941.660522 1199.943970,943.389038 1199.963745,944.920471 
	C1200.071411,953.250977 1200.403076,961.606812 1199.906616,969.909058 
	C1199.403442,978.327332 1203.202759,984.888550 1208.442749,990.441162 
	C1210.872192,993.015320 1215.381836,994.351685 1219.121460,994.797180 
	C1225.036499,995.501709 1231.125610,995.349243 1237.087769,994.880859 
	C1242.884766,994.425476 1247.125000,997.402954 1250.870605,1000.730286 
	C1253.051514,1002.667786 1254.876831,1006.401489 1254.770508,1009.248901 
	C1254.482910,1016.952271 1256.660889,1024.727905 1252.642578,1032.497925 
	C1250.898926,1035.869507 1250.910522,1040.155273 1247.156982,1042.599243 
	C1245.595703,1043.615723 1244.346191,1045.349365 1242.671997,1045.906128 
	C1238.735962,1047.215088 1234.269775,1047.312256 1230.668701,1049.164673 
	C1223.675659,1052.761963 1214.912720,1051.225708 1208.831909,1057.054321 
	C1208.290161,1057.573608 1207.974243,1058.328491 1207.279297,1059.244629 
M1173.354614,918.978699 
	C1175.789917,918.441406 1178.224487,917.900208 1180.660767,917.367676 
	C1192.513306,914.777222 1204.057373,914.803589 1215.106323,920.806030 
	C1218.137939,922.453064 1221.520386,923.559509 1224.853882,924.528076 
	C1238.047119,928.361084 1245.222656,922.905884 1245.021118,909.190857 
	C1244.776367,892.530884 1244.137573,875.872864 1244.137207,859.213989 
	C1244.136719,832.391174 1244.796509,805.566467 1244.614136,778.746399 
	C1244.532837,766.798035 1243.432739,754.837219 1237.642578,743.847473 
	C1226.545654,722.785461 1207.962769,712.466309 1185.632935,708.261047 
	C1150.574829,701.658752 1116.721558,707.109192 1084.048096,720.580627 
	C1078.155884,723.010071 1072.740234,726.825439 1067.522949,730.581970 
	C1063.956299,733.150085 1062.436646,737.181152 1064.022705,741.701660 
	C1069.393921,757.011536 1090.245117,767.062500 1102.837891,760.742981 
	C1115.234009,754.522034 1128.736206,751.277405 1142.668945,750.434326 
	C1155.068359,749.684082 1166.908691,752.083679 1177.689453,758.271240 
	C1184.809570,762.357727 1188.058472,769.479797 1186.688599,775.732300 
	C1185.238037,782.352905 1179.801880,786.677307 1171.284912,787.838135 
	C1148.532227,790.939209 1125.754028,793.860046 1103.023682,797.114990 
	C1081.490356,800.198608 1064.950195,811.055908 1057.093994,831.594543 
	C1047.066406,857.809875 1050.608398,883.144958 1067.517700,905.705566 
	C1085.190796,929.285156 1110.830566,936.908936 1138.910889,928.404419 
	C1150.033569,925.035645 1161.310547,922.175537 1173.354614,918.978699 
M1447.460327,755.234985 
	C1433.875854,716.215759 1393.189575,700.101990 1361.359375,706.131958 
	C1352.319702,707.844482 1343.725952,711.882263 1334.904175,714.782349 
	C1327.539429,717.203430 1320.147217,718.379150 1312.372437,716.333740 
	C1301.446045,713.458923 1290.440430,710.866211 1279.415649,708.388367 
	C1261.684326,704.403015 1250.560547,711.547302 1248.250122,729.577637 
	C1246.906250,740.065063 1246.717163,750.896484 1247.605713,761.438538 
	C1250.775635,799.040710 1251.561157,836.642517 1249.306396,874.299377 
	C1248.599976,886.098389 1247.408691,897.868408 1246.438477,909.651611 
	C1245.343384,922.952087 1251.537231,930.165833 1264.810791,931.037109 
	C1265.807983,931.102539 1266.811646,931.181030 1267.807495,931.140015 
	C1277.287476,930.748962 1286.775269,930.474060 1296.242554,929.877380 
	C1302.957153,929.454102 1306.265259,926.534180 1307.045532,919.698547 
	C1307.835449,912.778137 1308.623047,905.683289 1307.968750,898.802063 
	C1304.899780,866.528442 1305.725830,834.201599 1306.224121,801.893066 
	C1306.636108,775.181458 1322.398315,755.523804 1346.415405,750.456787 
	C1371.144165,745.239624 1390.418579,756.717224 1396.463989,781.097717 
	C1398.442627,789.076904 1399.085083,797.567749 1399.083496,805.824402 
	C1399.078369,832.651917 1398.135986,859.481262 1398.285278,886.305847 
	C1398.356567,899.081848 1400.033325,911.852600 1401.085938,924.617126 
	C1401.360596,927.947876 1403.172852,929.281006 1406.782837,929.203613 
	C1418.610352,928.950195 1430.446533,929.018982 1442.278687,929.090942 
	C1449.755737,929.136414 1452.782349,927.710999 1454.626221,920.360352 
	C1456.718018,912.020935 1458.829712,903.362915 1458.754883,894.862610 
	C1458.502686,866.230103 1457.434570,837.600464 1456.379272,808.980774 
	C1455.715576,790.979065 1453.760498,773.120300 1447.460327,755.234985 
M1235.701782,1219.369385 
	C1244.949463,1214.914551 1254.393188,1210.816040 1263.373291,1205.875000 
	C1269.034180,1202.760254 1270.819214,1197.872192 1268.562744,1192.784912 
	C1265.071533,1184.913208 1261.108032,1177.219849 1256.860474,1169.725220 
	C1253.751343,1164.239380 1248.649902,1162.131470 1242.351440,1163.770874 
	C1238.660767,1164.731323 1234.985352,1165.761719 1231.337036,1166.871948 
	C1216.898804,1171.265259 1207.814819,1167.447998 1200.934326,1153.919434 
	C1199.736328,1151.564087 1198.676880,1149.087402 1197.945801,1146.553589 
	C1189.918945,1118.728516 1190.871338,1090.991699 1199.202759,1063.430542 
	C1201.707520,1055.144653 1207.567871,1050.126343 1215.979492,1047.977295 
	C1223.214478,1046.128784 1230.448853,1044.247925 1237.592651,1042.082153 
	C1243.369019,1040.330933 1247.714844,1036.678467 1248.565674,1030.408936 
	C1249.391113,1024.326172 1249.972656,1018.143616 1249.871094,1012.018005 
	C1249.729004,1003.432190 1244.778320,998.610779 1236.078613,998.070923 
	C1231.101074,997.762146 1226.088745,998.043030 1221.092407,998.006653 
	C1208.677490,997.916260 1200.666748,992.136658 1197.049072,980.234619 
	C1195.901001,976.457581 1195.145020,972.431091 1195.041748,968.496887 
	C1194.880249,962.354248 1195.388794,956.191040 1195.685669,950.040039 
	C1196.046509,942.564392 1193.798096,937.713196 1188.140137,936.533081 
	C1176.069946,934.015686 1163.848755,932.033630 1151.468872,934.025513 
	C1142.279297,935.503967 1138.779541,940.557373 1139.802368,949.754089 
	C1140.427490,955.376587 1141.090088,961.020935 1141.221436,966.667419 
	C1141.599487,982.918762 1137.028198,989.923584 1122.141602,995.966370 
	C1116.335693,998.323181 1112.493652,1002.499023 1112.068115,1008.457336 
	C1111.577515,1015.326050 1112.186279,1022.323486 1112.873047,1029.209717 
	C1113.393921,1034.432617 1116.822998,1038.155518 1121.660645,1039.815552 
	C1135.403320,1044.531372 1139.692017,1054.978394 1139.621582,1068.270630 
	C1139.505005,1090.262695 1139.171021,1112.256104 1139.321045,1134.246216 
	C1139.385864,1143.712769 1139.829468,1153.258057 1141.158081,1162.617432 
	C1143.826782,1181.416138 1151.741211,1197.609009 1167.536621,1209.002808 
	C1188.156860,1223.876831 1210.839478,1226.544800 1235.701782,1219.369385 
z"></path>
<path fill="#F8F8F8" opacity="1.000000" stroke="none" d="
M1408.275146,1152.206177 
	C1410.183594,1147.630249 1411.834595,1143.349976 1413.384521,1139.033569 
	C1413.757446,1137.994751 1413.947144,1136.837891 1413.963623,1135.731323 
	C1414.326294,1111.321167 1414.846558,1086.911133 1414.915771,1062.499634 
	C1414.959595,1047.086792 1413.951416,1031.665894 1414.213135,1016.262024 
	C1414.290527,1011.710449 1416.700806,1007.023376 1418.729980,1002.722961 
	C1421.460815,996.935974 1427.488770,995.610779 1432.910278,995.179260 
	C1441.850342,994.467651 1450.978271,994.216370 1459.853760,995.253357 
	C1465.884277,995.957947 1471.876221,998.119934 1476.219727,1003.779175 
	C1479.803955,1008.448914 1481.062744,1013.201599 1481.020874,1018.715881 
	C1480.986816,1023.213989 1481.339600,1027.739990 1480.963623,1032.206665 
	C1477.125977,1077.803101 1480.005371,1123.487427 1478.758179,1170.585327 
	C1482.061401,1167.115234 1484.484741,1164.482666 1487.001953,1161.942993 
	C1492.992798,1155.898682 1499.749634,1151.269775 1508.640137,1151.010254 
	C1513.301025,1150.874023 1517.970703,1150.915894 1522.633911,1151.002930 
	C1529.288086,1151.127075 1534.460327,1154.270386 1539.408936,1158.563843 
	C1543.859619,1162.425171 1548.185913,1166.173950 1550.440674,1171.756958 
	C1551.690308,1174.850952 1553.523682,1177.917969 1553.858032,1181.125977 
	C1554.425049,1186.564941 1554.848755,1192.274780 1553.779175,1197.556152 
	C1552.709351,1202.838257 1550.443970,1208.216553 1547.411011,1212.674072 
	C1543.881348,1217.861816 1539.360596,1222.549072 1533.044800,1224.839478 
	C1524.218750,1228.040405 1515.588257,1232.116699 1506.049438,1226.722046 
	C1503.378296,1225.211426 1499.589722,1225.563354 1497.080200,1223.902588 
	C1491.344116,1220.106567 1486.081787,1215.594849 1480.826782,1211.528198 
	C1476.038574,1218.232910 1469.260864,1222.911743 1458.947388,1224.298706 
	C1431.800415,1227.949219 1404.637451,1224.749878 1377.527588,1226.048096 
	C1368.078125,1226.500610 1358.616821,1228.150513 1349.217041,1227.789795 
	C1339.642944,1227.422607 1329.613037,1226.707153 1320.737549,1223.500610 
	C1309.972046,1219.611572 1299.815674,1213.381104 1292.147583,1204.395508 
	C1285.535889,1196.647705 1279.597534,1188.132324 1276.404785,1178.470459 
	C1273.607666,1170.005737 1272.209229,1161.011475 1270.462280,1152.206177 
	C1265.840820,1128.911377 1268.846069,1105.679199 1268.142944,1082.464600 
	C1267.432007,1058.994629 1267.984253,1035.486450 1267.987061,1011.995056 
	C1267.987915,1004.092163 1274.985474,997.283752 1282.913330,996.904724 
	C1287.420532,996.689148 1291.903931,995.013000 1296.370850,995.120544 
	C1305.377319,995.337524 1314.370972,996.255310 1323.357666,997.026611 
	C1326.866577,997.327881 1331.134888,1003.446655 1333.235962,1006.049988 
	C1337.534058,1011.375793 1335.110352,1017.792725 1337.438721,1023.405090 
	C1338.722656,1026.500244 1337.173706,1030.738037 1337.027710,1034.465576 
	C1336.652344,1044.044067 1336.320679,1053.624634 1336.020874,1063.205933 
	C1335.658691,1074.786865 1335.081421,1086.369751 1335.086914,1097.951538 
	C1335.092651,1110.033447 1335.028442,1122.179077 1336.205078,1134.178223 
	C1337.294189,1145.282959 1340.535034,1156.210938 1349.657104,1163.622192 
	C1352.733887,1166.121826 1357.415405,1167.590576 1360.864868,1169.552612 
	C1366.479004,1172.745850 1371.681396,1171.591064 1377.044434,1171.908936 
	C1386.774902,1172.485596 1393.818237,1166.725220 1400.563843,1160.819580 
	C1403.339600,1158.389282 1405.526123,1155.285889 1408.275146,1152.206177 
M1331.614014,1042.903564 
	C1331.412720,1032.784058 1331.630371,1022.631653 1330.841187,1012.558228 
	C1330.419189,1007.170654 1327.745972,1001.570007 1321.819092,1000.580994 
	C1307.326660,998.162598 1292.677856,997.253845 1278.292358,1001.511475 
	C1274.342529,1002.680542 1272.092651,1005.492920 1272.058105,1010.072693 
	C1271.810059,1042.889893 1271.041016,1075.708008 1271.222534,1108.521484 
	C1271.331055,1128.121948 1271.556152,1147.814819 1276.939819,1166.995728 
	C1286.608887,1201.444702 1313.482300,1223.328491 1348.093628,1222.976196 
	C1383.884033,1222.612061 1419.671265,1221.232422 1455.440796,1219.817261 
	C1472.068970,1219.159424 1479.437134,1208.868164 1477.620117,1192.296997 
	C1475.771973,1175.440796 1473.848755,1158.468750 1473.898438,1141.553101 
	C1474.020996,1099.911743 1475.153320,1058.271240 1476.135986,1016.636475 
	C1476.324829,1008.632446 1472.911133,1003.770264 1465.862671,1000.796204 
	C1457.358765,997.207825 1448.455933,996.115845 1439.443237,997.369385 
	C1420.683838,999.978516 1418.212524,1003.656555 1418.270508,1022.807190 
	C1418.377441,1058.119751 1418.047241,1093.434570 1417.721313,1128.746826 
	C1417.591064,1142.870483 1412.517700,1154.962036 1401.953857,1164.663452 
	C1384.000122,1181.151367 1348.101440,1179.776123 1336.306396,1151.914795 
	C1333.265259,1144.731079 1331.362183,1136.518921 1331.242065,1128.743530 
	C1330.804810,1100.451172 1331.344849,1072.143677 1331.614014,1042.903564 
M1479.122803,1190.169922 
	C1479.407837,1191.809570 1479.633545,1193.462036 1479.986816,1195.086792 
	C1484.031250,1213.681274 1504.565918,1227.552002 1522.046875,1223.515015 
	C1540.196289,1219.323608 1552.637207,1201.374878 1549.744141,1183.555786 
	C1546.837524,1165.654663 1530.649658,1152.029419 1513.785278,1153.289307 
	C1493.446289,1154.809082 1479.134888,1169.657837 1479.122803,1190.169922 
z"></path>
<path fill="#010101" opacity="1.000000" stroke="none" d="
M981.558228,889.488037 
	C971.961304,914.483887 962.249756,939.029907 953.209045,963.820679 
	C935.245483,1013.079529 885.236938,1021.753296 851.553955,1008.959656 
	C844.334229,1006.217346 837.320007,1002.769409 830.555237,999.024902 
	C810.511780,987.930237 789.561401,981.631348 766.455261,985.941284 
	C758.981567,987.335327 752.222900,990.493835 746.566223,995.709106 
	C737.804016,1003.787415 736.496582,1013.502441 743.098083,1023.460999 
	C750.752197,1035.007690 761.775269,1042.458862 774.550476,1046.955322 
	C789.258179,1052.131958 804.412109,1056.036987 819.140686,1061.160034 
	C828.510437,1064.419067 837.677856,1068.452637 846.553040,1072.902710 
	C868.055664,1083.684326 880.711792,1101.203613 883.417297,1125.154541 
	C886.467041,1152.152832 881.551697,1176.996582 860.807129,1196.525879 
	C848.008545,1208.574707 832.566467,1215.959717 815.470947,1219.266968 
	C767.787659,1228.491821 723.162781,1221.068115 682.655029,1193.325684 
	C677.457153,1189.765747 672.664612,1185.559204 667.969971,1181.334595 
	C663.289734,1177.122803 663.342773,1175.005981 667.210022,1170.348267 
	C674.223328,1161.901367 681.209900,1153.432373 688.204041,1144.969604 
	C692.931885,1139.249023 696.672974,1138.292847 703.492004,1141.556274 
	C720.108154,1149.508057 736.373047,1158.274292 753.320679,1165.430786 
	C771.630554,1173.162354 790.350952,1173.679443 807.823120,1162.482544 
	C812.153137,1159.707764 816.377502,1155.830200 818.958740,1151.460327 
	C824.269043,1142.470825 821.595764,1132.692017 812.805298,1124.695312 
	C801.741638,1114.630737 788.324768,1108.769653 774.429565,1104.074707 
	C756.660034,1098.070679 738.506531,1093.166626 720.874084,1086.803101 
	C700.690125,1079.518799 683.756592,1067.294067 677.562134,1045.819946 
	C664.916321,1001.981262 678.911438,954.607788 734.683838,939.052368 
	C769.153259,929.438477 802.994812,933.375610 836.109192,945.412292 
	C845.403198,948.790527 854.319031,953.369080 863.083435,958.010437 
	C879.166931,966.527832 899.706421,954.784180 900.069031,936.645203 
	C900.342346,922.974426 897.439026,910.176514 892.335815,897.378418 
	C876.476868,857.606567 861.541443,817.467590 846.031982,777.554871 
	C840.024719,762.095520 833.379089,746.885193 827.158081,731.507324 
	C825.484070,727.369568 823.957825,723.111206 822.971436,718.770142 
	C821.441589,712.038025 824.270813,706.731384 830.939453,706.469543 
	C843.480225,705.977234 856.138306,706.273438 868.627747,707.481262 
	C876.381714,708.231201 881.812561,714.276367 884.752258,721.140930 
	C890.029236,733.463379 894.534851,746.130737 899.008667,758.779297 
	C906.326172,779.467529 914.016174,799.978760 925.256226,818.935242 
	C928.215698,823.926636 931.129089,829.596069 938.191956,829.089233 
	C945.113281,828.592468 947.695557,822.842590 949.868591,817.460693 
	C963.043152,784.832214 976.088135,752.151062 989.052612,719.438416 
	C992.669983,710.311035 996.872498,707.089417 1006.621643,707.020447 
	C1018.280640,706.937988 1029.941040,706.795532 1041.598999,706.900146 
	C1048.796509,706.964783 1051.208740,709.894714 1050.039551,717.047424 
	C1049.564087,719.955688 1048.492676,722.809021 1047.388184,725.565430 
	C1025.534546,780.104004 1003.636230,834.624695 981.558228,889.488037 
z"></path>
<path fill="#010101" opacity="1.000000" stroke="none" d="
M744.991821,869.957031 
	C746.229858,869.430298 747.784912,869.189880 748.737976,868.302734 
	C756.159912,861.393860 760.037231,852.399353 760.770264,842.677490 
	C761.729797,829.952942 761.741821,817.093689 761.169495,804.336853 
	C760.712463,794.148987 763.028625,790.335266 773.124390,789.654724 
	C783.239136,788.972839 793.368286,788.431274 803.500122,788.116882 
	C806.774841,788.015320 810.507751,788.010315 813.247070,789.451416 
	C815.984558,790.891541 819.573120,794.146667 819.642822,796.692139 
	C820.311340,821.133301 823.229614,845.617310 819.567017,870.039001 
	C816.405823,891.117554 804.344910,905.372131 785.119690,913.821167 
	C732.216797,937.071228 679.369629,937.800049 627.847595,910.647339 
	C597.379944,894.590576 578.100281,868.154236 567.464417,835.483398 
	C545.125244,766.862732 575.147217,691.022034 638.320068,656.580078 
	C661.870605,643.740234 687.229370,639.855469 713.667419,642.138184 
	C736.871582,644.141785 759.323059,649.296387 780.199951,659.952454 
	C786.685364,663.262817 792.886597,667.213745 798.908386,671.324890 
	C804.870483,675.395386 806.341003,679.967163 803.139221,686.437561 
	C798.880676,695.043701 794.215637,703.527283 788.883850,711.500916 
	C783.926453,718.914612 778.411621,720.154846 770.199158,716.519775 
	C764.758606,714.111511 759.483765,711.169556 754.505371,707.901855 
	C714.985535,681.962341 654.601562,695.235840 630.440125,741.625122 
	C612.307800,776.438721 616.086121,821.232300 640.777222,850.479004 
	C654.555847,866.799744 672.824890,875.528381 693.662842,878.979370 
	C707.084290,881.202148 720.576721,881.752869 733.624634,877.008911 
	C737.864075,875.467529 741.650330,872.679565 745.344482,870.163147 
	C745.045105,869.864563 745.029907,869.943848 744.991821,869.957031 
z"></path>
<path fill="#010101" opacity="1.000000" stroke="none" d="
M987.060303,1223.145142 
	C942.808105,1216.709106 911.451721,1193.199707 894.722900,1152.489502 
	C877.412842,1110.364624 883.284546,1070.177246 912.888489,1035.295776 
	C932.555542,1012.122559 959.496704,1001.267761 989.547668,998.011292 
	C1011.581787,995.623535 1032.693970,998.797852 1052.704224,1008.348206 
	C1078.475708,1020.648376 1093.746704,1041.936279 1102.960083,1068.175293 
	C1107.899536,1082.242676 1111.351562,1096.562622 1109.128174,1111.689331 
	C1107.430664,1123.238770 1103.857422,1127.498779 1092.098755,1128.842163 
	C1081.557861,1130.046509 1070.880981,1130.239136 1060.255127,1130.476807 
	C1046.109009,1130.793335 1031.954224,1130.748657 1017.803040,1130.809814 
	C998.473755,1130.893433 979.144287,1130.919678 959.815002,1130.991577 
	C950.205750,1131.027344 946.524414,1135.998535 949.522766,1145.274658 
	C952.285645,1153.822144 958.923950,1159.376221 965.907471,1164.184692 
	C986.864929,1178.615356 1008.752563,1182.325439 1031.810547,1168.828247 
	C1037.254395,1165.641602 1042.919922,1162.834351 1048.474976,1159.836670 
	C1054.825195,1156.410034 1057.334717,1156.138550 1062.056519,1161.473999 
	C1069.195801,1169.540894 1075.697266,1178.205688 1082.042603,1186.927002 
	C1084.907959,1190.865356 1083.332886,1195.186401 1079.944702,1198.129028 
	C1076.469116,1201.147583 1072.651978,1204.063843 1068.498535,1205.962402 
	C1045.318604,1216.558105 1021.128540,1223.318848 995.463501,1223.853516 
	C992.817322,1223.908691 990.159912,1223.418701 987.060303,1223.145142 
M996.649414,1044.031738 
	C995.324097,1044.147095 993.983521,1044.171875 992.675720,1044.391357 
	C974.104675,1047.508423 961.094788,1059.358276 949.374207,1072.775757 
	C947.487732,1074.935425 947.417114,1079.764038 948.220337,1082.923340 
	C949.283264,1087.103882 953.269836,1088.843384 957.660706,1088.845215 
	C983.825867,1088.855835 1009.991333,1088.931885 1036.155884,1088.807495 
	C1044.085083,1088.769775 1048.264771,1082.467651 1045.292725,1075.082520 
	C1044.080322,1072.069824 1042.070557,1069.275024 1039.996460,1066.729248 
	C1029.039062,1053.279907 1015.778198,1043.996338 996.649414,1044.031738 
z"></path>
<path fill="#000000" opacity="1.000000" stroke="none" d="
M733.124329,935.111633 
	C736.238098,934.339600 739.542114,933.750244 742.846130,933.160950 
	C742.895264,933.653015 742.944458,934.145081 742.993591,934.637146 
	C740.116272,934.794128 737.238892,934.951111 734.038452,935.372864 
	C733.581726,935.523193 733.448181,935.408813 733.124329,935.111633 
z"></path>
<path fill="#010101" opacity="1.000000" stroke="none" d="
M1172.935913,919.031250 
	C1161.310547,922.175537 1150.033569,925.035645 1138.910889,928.404419 
	C1110.830566,936.908936 1085.190796,929.285156 1067.517700,905.705566 
	C1050.608398,883.144958 1047.066406,857.809875 1057.093994,831.594543 
	C1064.950195,811.055908 1081.490356,800.198608 1103.023682,797.114990 
	C1125.754028,793.860046 1148.532227,790.939209 1171.284912,787.838135 
	C1179.801880,786.677307 1185.238037,782.352905 1186.688599,775.732300 
	C1188.058472,769.479797 1184.809570,762.357727 1177.689453,758.271240 
	C1166.908691,752.083679 1155.068359,749.684082 1142.668945,750.434326 
	C1128.736206,751.277405 1115.234009,754.522034 1102.837891,760.742981 
	C1090.245117,767.062500 1069.393921,757.011536 1064.022705,741.701660 
	C1062.436646,737.181152 1063.956299,733.150085 1067.522949,730.581970 
	C1072.740234,726.825439 1078.155884,723.010071 1084.048096,720.580627 
	C1116.721558,707.109192 1150.574829,701.658752 1185.632935,708.261047 
	C1207.962769,712.466309 1226.545654,722.785461 1237.642578,743.847473 
	C1243.432739,754.837219 1244.532837,766.798035 1244.614136,778.746399 
	C1244.796509,805.566467 1244.136719,832.391174 1244.137207,859.213989 
	C1244.137573,875.872864 1244.776367,892.530884 1245.021118,909.190857 
	C1245.222656,922.905884 1238.047119,928.361084 1224.853882,924.528076 
	C1221.520386,923.559509 1218.137939,922.453064 1215.106323,920.806030 
	C1204.057373,914.803589 1192.513306,914.777222 1180.660767,917.367676 
	C1178.224487,917.900208 1175.789917,918.441406 1172.935913,919.031250 
M1127.516846,882.104309 
	C1129.547852,882.795349 1131.532349,883.709961 1133.616943,884.142639 
	C1153.084106,888.183533 1178.321655,873.400940 1186.060181,853.499023 
	C1190.576660,841.883362 1184.768066,832.177490 1172.338379,831.101746 
	C1164.900513,830.458008 1157.401489,830.093384 1149.941895,830.236572 
	C1139.734131,830.432495 1129.800659,832.223450 1120.863892,837.673706 
	C1112.758545,842.616821 1109.211548,850.084900 1111.179321,859.257812 
	C1113.241699,868.871948 1117.763916,876.959595 1127.516846,882.104309 
z"></path>
<path fill="#010101" opacity="1.000000" stroke="none" d="
M1447.626953,755.590210 
	C1453.760498,773.120300 1455.715576,790.979065 1456.379272,808.980774 
	C1457.434570,837.600464 1458.502686,866.230103 1458.754883,894.862610 
	C1458.829712,903.362915 1456.718018,912.020935 1454.626221,920.360352 
	C1452.782349,927.710999 1449.755737,929.136414 1442.278687,929.090942 
	C1430.446533,929.018982 1418.610352,928.950195 1406.782837,929.203613 
	C1403.172852,929.281006 1401.360596,927.947876 1401.085938,924.617126 
	C1400.033325,911.852600 1398.356567,899.081848 1398.285278,886.305847 
	C1398.135986,859.481262 1399.078369,832.651917 1399.083496,805.824402 
	C1399.085083,797.567749 1398.442627,789.076904 1396.463989,781.097717 
	C1390.418579,756.717224 1371.144165,745.239624 1346.415405,750.456787 
	C1322.398315,755.523804 1306.636108,775.181458 1306.224121,801.893066 
	C1305.725830,834.201599 1304.899780,866.528442 1307.968750,898.802063 
	C1308.623047,905.683289 1307.835449,912.778137 1307.045532,919.698547 
	C1306.265259,926.534180 1302.957153,929.454102 1296.242554,929.877380 
	C1286.775269,930.474060 1277.287476,930.748962 1267.807495,931.140015 
	C1266.811646,931.181030 1265.807983,931.102539 1264.810791,931.037109 
	C1251.537231,930.165833 1245.343384,922.952087 1246.438477,909.651611 
	C1247.408691,897.868408 1248.599976,886.098389 1249.306396,874.299377 
	C1251.561157,836.642517 1250.775635,799.040710 1247.605713,761.438538 
	C1246.717163,750.896484 1246.906250,740.065063 1248.250122,729.577637 
	C1250.560547,711.547302 1261.684326,704.403015 1279.415649,708.388367 
	C1290.440430,710.866211 1301.446045,713.458923 1312.372437,716.333740 
	C1320.147217,718.379150 1327.539429,717.203430 1334.904175,714.782349 
	C1343.725952,711.882263 1352.319702,707.844482 1361.359375,706.131958 
	C1393.189575,700.101990 1433.875854,716.215759 1447.626953,755.590210 
z"></path>
<path fill="#010101" opacity="1.000000" stroke="none" d="
M1235.335693,1219.540039 
	C1210.839478,1226.544800 1188.156860,1223.876831 1167.536621,1209.002808 
	C1151.741211,1197.609009 1143.826782,1181.416138 1141.158081,1162.617432 
	C1139.829468,1153.258057 1139.385864,1143.712769 1139.321045,1134.246216 
	C1139.171021,1112.256104 1139.505005,1090.262695 1139.621582,1068.270630 
	C1139.692017,1054.978394 1135.403320,1044.531372 1121.660645,1039.815552 
	C1116.822998,1038.155518 1113.393921,1034.432617 1112.873047,1029.209717 
	C1112.186279,1022.323486 1111.577515,1015.326050 1112.068115,1008.457336 
	C1112.493652,1002.499023 1116.335693,998.323181 1122.141602,995.966370 
	C1137.028198,989.923584 1141.599487,982.918762 1141.221436,966.667419 
	C1141.090088,961.020935 1140.427490,955.376587 1139.802368,949.754089 
	C1138.779541,940.557373 1142.279297,935.503967 1151.468872,934.025513 
	C1163.848755,932.033630 1176.069946,934.015686 1188.140137,936.533081 
	C1193.798096,937.713196 1196.046509,942.564392 1195.685669,950.040039 
	C1195.388794,956.191040 1194.880249,962.354248 1195.041748,968.496887 
	C1195.145020,972.431091 1195.901001,976.457581 1197.049072,980.234619 
	C1200.666748,992.136658 1208.677490,997.916260 1221.092407,998.006653 
	C1226.088745,998.043030 1231.101074,997.762146 1236.078613,998.070923 
	C1244.778320,998.610779 1249.729004,1003.432190 1249.871094,1012.018005 
	C1249.972656,1018.143616 1249.391113,1024.326172 1248.565674,1030.408936 
	C1247.714844,1036.678467 1243.369019,1040.330933 1237.592651,1042.082153 
	C1230.448853,1044.247925 1223.214478,1046.128784 1215.979492,1047.977295 
	C1207.567871,1050.126343 1201.707520,1055.144653 1199.202759,1063.430542 
	C1190.871338,1090.991699 1189.918945,1118.728516 1197.945801,1146.553589 
	C1198.676880,1149.087402 1199.736328,1151.564087 1200.934326,1153.919434 
	C1207.814819,1167.447998 1216.898804,1171.265259 1231.337036,1166.871948 
	C1234.985352,1165.761719 1238.660767,1164.731323 1242.351440,1163.770874 
	C1248.649902,1162.131470 1253.751343,1164.239380 1256.860474,1169.725220 
	C1261.108032,1177.219849 1265.071533,1184.913208 1268.562744,1192.784912 
	C1270.819214,1197.872192 1269.034180,1202.760254 1263.373291,1205.875000 
	C1254.393188,1210.816040 1244.949463,1214.914551 1235.335693,1219.540039 
z"></path>
<path fill="#010101" opacity="1.000000" stroke="none" d="
M1331.565308,1043.372803 
	C1331.344849,1072.143677 1330.804810,1100.451172 1331.242065,1128.743530 
	C1331.362183,1136.518921 1333.265259,1144.731079 1336.306396,1151.914795 
	C1348.101440,1179.776123 1384.000122,1181.151367 1401.953857,1164.663452 
	C1412.517700,1154.962036 1417.591064,1142.870483 1417.721313,1128.746826 
	C1418.047241,1093.434570 1418.377441,1058.119751 1418.270508,1022.807190 
	C1418.212524,1003.656555 1420.683838,999.978516 1439.443237,997.369385 
	C1448.455933,996.115845 1457.358765,997.207825 1465.862671,1000.796204 
	C1472.911133,1003.770264 1476.324829,1008.632446 1476.135986,1016.636475 
	C1475.153320,1058.271240 1474.020996,1099.911743 1473.898438,1141.553101 
	C1473.848755,1158.468750 1475.771973,1175.440796 1477.620117,1192.296997 
	C1479.437134,1208.868164 1472.068970,1219.159424 1455.440796,1219.817261 
	C1419.671265,1221.232422 1383.884033,1222.612061 1348.093628,1222.976196 
	C1313.482300,1223.328491 1286.608887,1201.444702 1276.939819,1166.995728 
	C1271.556152,1147.814819 1271.331055,1128.121948 1271.222534,1108.521484 
	C1271.041016,1075.708008 1271.810059,1042.889893 1272.058105,1010.072693 
	C1272.092651,1005.492920 1274.342529,1002.680542 1278.292358,1001.511475 
	C1292.677856,997.253845 1307.326660,998.162598 1321.819092,1000.580994 
	C1327.745972,1001.570007 1330.419189,1007.170654 1330.841187,1012.558228 
	C1331.630371,1022.631653 1331.412720,1032.784058 1331.565308,1043.372803 
z"></path>
<path fill="#020202" opacity="1.000000" stroke="none" d="
M1479.101318,1189.734131 
	C1479.134888,1169.657837 1493.446289,1154.809082 1513.785278,1153.289307 
	C1530.649658,1152.029419 1546.837524,1165.654663 1549.744141,1183.555786 
	C1552.637207,1201.374878 1540.196289,1219.323608 1522.046875,1223.515015 
	C1504.565918,1227.552002 1484.031250,1213.681274 1479.986816,1195.086792 
	C1479.633545,1193.462036 1479.407837,1191.809570 1479.101318,1189.734131 
z"></path>
<path fill="#F4F4F4" opacity="1.000000" stroke="none" d="
M997.114258,1044.017090 
	C1015.778198,1043.996338 1029.039062,1053.279907 1039.996460,1066.729248 
	C1042.070557,1069.275024 1044.080322,1072.069824 1045.292725,1075.082520 
	C1048.264771,1082.467651 1044.085083,1088.769775 1036.155884,1088.807495 
	C1009.991333,1088.931885 983.825867,1088.855835 957.660706,1088.845215 
	C953.269836,1088.843384 949.283264,1087.103882 948.220337,1082.923340 
	C947.417114,1079.764038 947.487732,1074.935425 949.374207,1072.775757 
	C961.094788,1059.358276 974.104675,1047.508423 992.675720,1044.391357 
	C993.983521,1044.171875 995.324097,1044.147095 997.114258,1044.017090 
M996.500000,1085.978149 
	C1009.487915,1085.978149 1022.475891,1086.006348 1035.463745,1085.964478 
	C1040.723145,1085.947510 1043.570557,1081.745361 1041.440552,1076.993164 
	C1039.383057,1072.402588 1036.723877,1068.172485 1032.693359,1064.975342 
	C1028.983032,1062.032349 1025.556519,1058.615479 1021.517944,1056.232666 
	C1016.670898,1053.372681 1011.508057,1050.143433 1006.127563,1049.278687 
	C994.636169,1047.431763 983.460693,1049.812744 974.125977,1057.142212 
	C967.157288,1062.614014 960.661865,1068.752930 954.459839,1075.088257 
	C953.024475,1076.554565 952.877563,1080.268311 953.565430,1082.509766 
	C954.099365,1084.249390 955.709473,1086.259155 959.039734,1086.143921 
	C971.180542,1085.724243 983.344666,1085.978149 996.500000,1085.978149 
z"></path>
<path fill="#F6F6F6" opacity="1.000000" stroke="none" d="
M1127.173218,881.951904 
	C1117.763916,876.959595 1113.241699,868.871948 1111.179321,859.257812 
	C1109.211548,850.084900 1112.758545,842.616821 1120.863892,837.673706 
	C1129.800659,832.223450 1139.734131,830.432495 1149.941895,830.236572 
	C1157.401489,830.093384 1164.900513,830.458008 1172.338379,831.101746 
	C1184.768066,832.177490 1190.576660,841.883362 1186.060181,853.499023 
	C1178.321655,873.400940 1153.084106,888.183533 1133.616943,884.142639 
	C1131.532349,883.709961 1129.547852,882.795349 1127.173218,881.951904 
M1179.249023,838.060181 
	C1169.696045,834.383362 1159.731445,836.608826 1149.963135,836.020691 
	C1149.631226,836.000732 1149.295776,836.037903 1148.964233,836.015198 
	C1140.667725,835.447021 1132.392212,836.260681 1125.644043,841.206543 
	C1121.115234,844.525818 1117.636108,849.431946 1114.284424,854.060425 
	C1113.681152,854.893494 1116.010742,857.815247 1116.916382,859.804565 
	C1117.107910,860.225464 1116.944092,860.794312 1117.024780,861.281555 
	C1118.218994,868.486816 1121.655029,874.276733 1128.084106,877.937378 
	C1130.383911,879.246765 1133.286255,879.581116 1135.429810,881.061218 
	C1138.533569,883.204468 1143.852051,883.687134 1146.833984,881.728577 
	C1148.225342,880.814819 1150.008057,880.411682 1151.671021,880.024719 
	C1152.941162,879.729187 1154.652466,880.317200 1155.567871,879.667236 
	C1164.440674,873.367737 1174.592285,868.548950 1179.995972,858.207886 
	C1183.024536,852.412292 1184.802124,843.667358 1179.249023,838.060181 
z"></path>
<path fill="#000000" opacity="1.000000" stroke="none" d="
M996.000000,1085.978149 
	C983.344666,1085.978149 971.180542,1085.724243 959.039734,1086.143921 
	C955.709473,1086.259155 954.099365,1084.249390 953.565430,1082.509766 
	C952.877563,1080.268311 953.024475,1076.554565 954.459839,1075.088257 
	C960.661865,1068.752930 967.157288,1062.614014 974.125977,1057.142212 
	C983.460693,1049.812744 994.636169,1047.431763 1006.127563,1049.278687 
	C1011.508057,1050.143433 1016.670898,1053.372681 1021.517944,1056.232666 
	C1025.556519,1058.615479 1028.983032,1062.032349 1032.693359,1064.975342 
	C1036.723877,1068.172485 1039.383057,1072.402588 1041.440552,1076.993164 
	C1043.570557,1081.745361 1040.723145,1085.947510 1035.463745,1085.964478 
	C1022.475891,1086.006348 1009.487915,1085.978149 996.000000,1085.978149 
z"></path>
<path fill="#000000" opacity="1.000000" stroke="none" d="
M1179.586670,838.309631 
	C1184.802124,843.667358 1183.024536,852.412292 1179.995972,858.207886 
	C1174.592285,868.548950 1164.440674,873.367737 1155.567871,879.667236 
	C1154.652466,880.317200 1152.941162,879.729187 1151.671021,880.024719 
	C1150.008057,880.411682 1148.225342,880.814819 1146.833984,881.728577 
	C1143.852051,883.687134 1138.533569,883.204468 1135.429810,881.061218 
	C1133.286255,879.581116 1130.383911,879.246765 1128.084106,877.937378 
	C1121.655029,874.276733 1118.218994,868.486816 1117.024780,861.281555 
	C1116.944092,860.794312 1117.107910,860.225464 1116.916382,859.804565 
	C1116.010742,857.815247 1113.681152,854.893494 1114.284424,854.060425 
	C1117.636108,849.431946 1121.115234,844.525818 1125.644043,841.206543 
	C1132.392212,836.260681 1140.667725,835.447021 1148.964233,836.015198 
	C1149.295776,836.037903 1149.631226,836.000732 1149.963135,836.020691 
	C1159.731445,836.608826 1169.696045,834.383362 1179.586670,838.309631 
z"></path>
</svg>